<?xml version='1.0' encoding='UTF-8'?>
<svg xmlns="http://www.w3.org/2000/svg" viewBox="0 0 8083.40 4004.94" width="8083.40" height="4004.94">
  <g transform="translate(0, 4004.94) scale(1, -1) translate(-19603.45, -15585.80) scale(1.69029)">
    <path d="m 13455.2,11498.2 c -484.7,-0.3 -894,-313.2 -956.8,-731.5 -60.1,5.5 -121.4,4.9 -182.3,-1.9 -376.3,-42.4 -655.7,-305.3 -624,-587.2 31.8,-281.97 362.6,-476.22 739,-433.85 24.2,2.75 48.3,6.44 72.2,11.09 40.2,-275.94 367.2,-462.96 737,-421.48 129.6,14.6 253.4,56.62 356.9,121.07 142,-97.31 337.1,-140.46 534.8,-118.23 107.3,12.09 211,43.01 302.5,90.2 140.8,-90.17 329,-129.32 519.2,-107.92 247.5,27.91 464.2,154.16 566.1,329.8 10.2,-1.55 20.5,-2.89 30.8,-4.07 376.7,-39.24 705.9,157.73 735.3,439.89 14.1,135.5 -44.2,273 -162.2,382.2 -117.9,109.1 -285.8,181 -466.7,199.9 -189.3,19.6 -376.2,-20.7 -515.9,-111.1 -52.2,144.4 -227.2,244.6 -426.9,244.6 -109.3,0 -214.7,-30.4 -295.8,-85.2 -34.1,441.1 -455.2,783.7 -963.2,783.7 z" fill="#ffffff"/>
  </g>
</svg>
