<?xml version='1.0' encoding='UTF-8'?>
<svg xmlns="http://www.w3.org/2000/svg" viewBox="0 0 6216.50 3471.18" width="6216.50" height="3471.18">
  <g transform="translate(0, 3471.18) scale(1, -1) translate(-9133.01, -16130.29) scale(1.19521)">
    <path d="m 10017.8,16300 c -584.71,-0.2 -1072.34,-447 -1123.48,-1029.5 -93.19,33.4 -191.39,50.4 -290.36,50.4 -476.38,0 -862.59,-386.2 -862.59,-862.5 0,-476.4 386.21,-862.6 862.59,-862.6 223.58,0.1 438.37,87.1 599.07,242.6 144.1,-141 337.62,-220 539.2,-220.2 199.59,0.2 391.37,77.6 535.17,216 142.6,-131.5 329.4,-204.5 523.3,-204.5 219.6,0.2 428.7,93.8 575.1,257.4 146.6,-177.2 364.5,-279.8 594.4,-280 204.9,0.1 401.3,81.5 546.1,226.3 144.9,144.8 226.2,341.3 226.2,546.1 -0.3,412.5 -324.6,752 -736.7,771 0.1,2.9 0.2,5.8 0.3,8.7 0,177.8 -70.7,348.4 -196.4,474.1 -125.8,125.8 -296.3,196.5 -474.2,196.5 -119.9,-0.1 -237.7,-32.4 -341,-93.5 -201.6,348.8 -573.9,563.7 -976.8,563.7 z" fill="#ffffff"/>
  </g>
</svg>
