<?xml version='1.0' encoding='UTF-8'?>
<svg xmlns="http://www.w3.org/2000/svg" viewBox="0 0 8540.30 4186.34" width="8540.30" height="4186.34">
  <g transform="translate(0, 4186.34) scale(1, -1) translate(-15892.85, -3921.99) scale(1.48889)">
    <path d="m 14057,5335.52 c -277,-0.21 -519,-179.19 -588.9,-435.65 -142.5,191.4 -412.1,310.06 -704.6,310.14 -445.7,0 -807,-270.68 -807,-604.56 0.2,-22.38 2,-44.76 5.5,-66.97 -21.2,0.94 -42.4,1.46 -63.6,1.51 -295.4,0 -578.7,-87.91 -787.6,-244.39 -208.8,-156.46 -326.2,-368.69 -326.2,-589.99 0,-221.28 117.4,-433.5 326.2,-589.97 208.9,-156.47 492.2,-244.39 787.6,-244.39 229.1,0.18 452.7,53.31 640,152.14 139.8,-174.75 367,-278.78 609.4,-278.91 280.8,0.16 537.7,139.31 665,360.14 141.3,-160.56 358.7,-254.51 589.1,-254.62 271.2,0.15 520.9,130.02 652.5,339.31 136.9,-108.85 314.7,-169.12 499,-169.25 198,0 387.9,69.42 527.9,193 140,123.56 218.7,291.16 218.7,465.92 0,325.25 -268.9,601.8 -633.2,651.23 41.7,141.31 29.5,279.12 -34.5,391.68 -76.4,134.38 -221,222.74 -401.8,245.62 -180.9,22.88 -383.3,-21.59 -562.7,-123.6 -2.8,-1.7 -5.6,-3.38 -8.3,-5.09 -44.6,285.48 -300.8,496.76 -602.5,496.76 z" fill="#ffffff"/>
  </g>
</svg>
