<?xml version='1.0' encoding='UTF-8'?>
<svg xmlns="http://www.w3.org/2000/svg" viewBox="0 0 7537.14 3821.65" width="7537.14" height="3821.65">
  <g transform="translate(0, 3821.65) scale(1, -1) translate(-26796.89, -4011.60) scale(2.09749)">
    <path d="m 14553.6,3665.48 c -334.9,-0.15 -642.1,-150.2 -797.6,-389.62 -84.8,32.05 -177.3,48.68 -270.9,48.76 -169.9,0 -332.7,-54.46 -452.8,-151.41 -120.1,-96.96 -187.6,-228.44 -187.5,-365.54 0,-137.09 67.4,-268.55 187.5,-365.51 120.1,-96.93 282.9,-151.39 452.8,-151.39 39.8,0.04 79.6,3.1 118.8,9.11 17.4,-61.03 46.8,-116.15 86.8,-162.82 186,-216.58 554.3,-205.38 822.5,25.01 9.7,8.36 19.2,16.97 28.5,25.79 21.2,-16.74 43.2,-32.44 66.1,-46.97 281.5,-177.96 626.1,-152.02 792.6,59.71 81.6,-29.27 170,-44.45 259.3,-44.51 353.6,0 640.3,231.38 640.3,516.82 0,137.09 -67.5,268.57 -187.5,365.5 -120.1,96.94 -283,151.39 -452.8,151.39 -83.9,-0.09 -166.9,-13.52 -244.4,-39.46 -115.7,305.98 -465.4,515.05 -861.7,515.14 z" fill="#ffffff"/>
  </g>
</svg>
