<?xml version='1.0' encoding='UTF-8'?>
<svg xmlns="http://www.w3.org/2000/svg" viewBox="0 0 8485.34 4010.02" width="8485.34" height="4010.02">
  <g transform="translate(0, 4010.02) scale(1, -1) translate(-26094.62, -10222.32) scale(2.11228)">
    <path d="m 14468.2,6660.65 c -13,-0.04 -26,-0.45 -39.1,-1.2 -271.4,-15.48 -493.4,-177.67 -521.6,-381.13 -47.7,9.29 -96.7,12.61 -145.6,9.91 -256,-14.7 -465.4,-190.1 -495.7,-415.27 -97.2,61.17 -215.6,90.84 -335.6,84.05 -290.1,-16.54 -513.5,-237.55 -498.9,-493.62 6.9,-122.98 69,-237.78 172.5,-319.13 103.5,-81.35 239.9,-122.59 379.3,-114.64 75.8,4.32 149.9,23.09 217.2,55.03 80.3,-98.71 227.7,-154.67 383.9,-145.78 136.6,7.79 262.1,64.23 337.4,151.72 84.6,-80.59 217.5,-123.87 356.3,-115.97 87.8,5.01 172.4,30.28 242,72.33 109.4,-90.95 269.4,-138.4 435.3,-129.07 169.4,9.68 325.8,77.53 423.8,183.77 105.9,-100.94 257.9,-154.23 414.6,-145.34 139.4,7.96 270.2,64.42 363.8,156.99 93.6,92.58 142.2,213.69 135.2,336.67 -14.6,256.07 -261.6,450.24 -551.8,433.73 -43.4,-2.57 -86.3,-9.87 -127.8,-21.75 7.5,34.68 10.4,70.11 8.5,105.43 -6.2,108.8 -57.3,210.54 -142.1,282.89 -84.8,72.35 -196.2,109.35 -309.9,102.88 -60.3,-3.53 -119.1,-19.16 -172.7,-45.89 -29.5,203.41 -255.3,354.26 -529,353.37 z" fill="#ffffff"/>
  </g>
</svg>
