<?xml version='1.0' encoding='UTF-8'?>
<svg xmlns="http://www.w3.org/2000/svg" viewBox="0 0 6539.16 4249.33" width="6539.16" height="4249.33">
  <g transform="translate(0, 4249.33) scale(1, -1) translate(-15033.15, -10060.36) scale(1.31574)">
    <path d="m 14412.7,10780.2 c -561.1,-0.3 -1053.8,-372.6 -1207.4,-912.2 -116.6,79.68 -254.6,122.32 -395.8,122.35 -186.1,-0.03 -364.5,-73.92 -496.1,-205.5 -131.6,-131.58 -205.5,-310.04 -205.5,-496.1 0.1,-50.79 5.7,-101.45 16.7,-151.03 -346,-48.92 -603.3,-345 -603.4,-694.44 0.1,-387.44 314.1,-701.54 701.6,-701.54 224,0.21 434.4,107.32 566.3,288.34 132.8,-170.68 337,-270.53 553.3,-270.62 246.2,0.15 474.3,129.36 601,340.41 133.1,-153.01 325.9,-240.98 528.7,-241.16 200.2,0.15 390.7,85.74 523.7,235.25 126.5,-212.48 355.4,-342.72 602.7,-342.81 387.4,0 701.5,314.11 701.5,701.54 -0.2,381.65 -305.4,693.14 -687,701.06 37,119.98 55.8,244.81 55.8,370.34 0,693.71 -562.4,1256.11 -1256.1,1256.11 z" fill="#ffffff"/>
  </g>
</svg>
