<?xml version='1.0' encoding='UTF-8'?>
<svg xmlns="http://www.w3.org/2000/svg" viewBox="0 0 7675.83 7675.81" width="7675.83" height="7675.81">
  <g transform="translate(0, 7675.81) scale(1, -1) translate(-20270.93, -1444.60) scale(1.69312)">
    <path d="m 16300,3119.99 c -1792.9,-147.9 -1912.8,-267.73 -2060.7,-2060.7 -147.9,1792.97 -267.8,1912.8 -2060.7,2060.7 1792.9,147.89 1912.8,267.79 2060.7,2060.69 147.9,-1792.9 267.8,-1912.8 2060.7,-2060.69" fill="#ffb600"/>
  </g>
  <g transform="translate(0, 7675.81) scale(1, -1) translate(-20270.93, -1444.60) scale(1.63076)">
    <path d="m 16300,2323.4 c -390.7,-32.2 -416.9,-58.32 -449.1,-449.12 -32.3,390.8 -58.4,416.92 -449.1,449.12 390.7,32.25 416.8,58.37 449.1,449.11 32.2,-390.74 58.4,-416.86 449.1,-449.11" fill="#ffb600"/>
  </g>
  <g transform="translate(0, 7675.81) scale(1, -1) translate(-20270.93, -1444.60) scale(1.37143)">
    <path d="m 16300,5333.49 c -191.1,-15.75 -203.9,-28.51 -219.7,-219.63 -15.7,191.12 -28.5,203.88 -219.6,219.63 191.1,15.75 203.9,28.51 219.6,219.62 15.8,-191.11 28.6,-203.87 219.7,-219.62" fill="#ffb600"/>
  </g>
</svg>
