<?xml version='1.0' encoding='UTF-8'?>
<svg xmlns="http://www.w3.org/2000/svg" viewBox="0 0 7819.76 7688.98" width="7819.76" height="7688.98">
  <g transform="translate(0, 7688.98) scale(1, -1) translate(-10701.06, -1669.06) scale(1.11444)">
    <path d="m 16300,4947.32 c -2723.9,-224.69 -2906,-406.84 -3130.7,-3130.71 -224.7,2723.87 -406.9,2906.02 -3130.7,3130.71 2723.8,224.69 2906,406.84 3130.7,3130.81 224.7,-2723.97 406.8,-2906.12 3130.7,-3130.81" fill="#ffb600"/>
  </g>
  <g transform="translate(0, 7688.98) scale(1, -1) translate(-10701.06, -1669.06) scale(1.00000)">
    <path d="m 13399.1,3527.1 c -1019,-84 -1087.2,-152.2 -1171.3,-1171.3 -84,1019.1 -152.2,1087.3 -1171.3,1171.3 1019.1,84.1 1087.3,152.2 1171.3,1171.3 84.1,-1019.1 152.3,-1087.2 1171.3,-1171.3" fill="#ffb600"/>
  </g>
  <g transform="translate(0, 7688.98) scale(1, -1) translate(-10701.06, -1669.06) scale(1.00000)">
    <path d="m 12244.1,6283.7 c -215.1,-17.7 -229.5,-32.1 -247.3,-247.3 -17.7,215.2 -32.1,229.6 -247.3,247.3 215.2,17.8 229.6,32.2 247.3,247.3 17.8,-215.1 32.2,-229.5 247.3,-247.3" fill="#ffb600"/>
  </g>
  <g transform="translate(0, 7688.98) scale(1, -1) translate(-10701.06, -1669.06) scale(1.00000)">
    <path d="m 15578.4,3295.6 c -215.2,-17.8 -229.6,-32.2 -247.3,-247.3 -17.8,215.1 -32.1,229.5 -247.3,247.3 215.2,17.7 229.5,32.1 247.3,247.3 17.7,-215.2 32.1,-229.6 247.3,-247.3" fill="#ffb600"/>
  </g>
  <g transform="translate(0, 7688.98) scale(1, -1) translate(-10701.06, -1669.06) scale(1.00000)">
    <path d="m 11559,4312 c -215.2,-17.8 -229.6,-32.2 -247.3,-247.3 -17.8,215.1 -32.2,229.5 -247.3,247.3 215.1,17.7 229.5,32.1 247.3,247.3 17.7,-215.2 32.1,-229.6 247.3,-247.3" fill="#ffb600"/>
  </g>
</svg>
