<?xml version='1.0' encoding='UTF-8'?>
<svg xmlns="http://www.w3.org/2000/svg" viewBox="0 0 7713.42 7921.48" width="7713.42" height="7921.48">
  <g transform="translate(0, 7921.48) scale(1, -1) translate(-10754.29, -10957.51) scale(1.12243)">
    <path d="m 16118.9,13191.6 c -2704.6,-223.1 -2885.3,-404 -3108.4,-3108.5 -223.1,2704.5 -404,2885.4 -3108.45,3108.5 2704.45,223 2885.35,403.9 3108.45,3108.4 223.1,-2704.5 403.8,-2885.4 3108.4,-3108.4" fill="#ffb600"/>
  </g>
  <g transform="translate(0, 7921.48) scale(1, -1) translate(-10754.29, -10957.51) scale(1.13613)">
    <path d="m 15938,14943.7 c -1180,-97.3 -1259,-176.2 -1356.3,-1356.2 -97.4,1180 -176.2,1258.9 -1356.3,1356.2 1180.1,97.4 1258.9,176.3 1356.3,1356.3 97.3,-1180 176.3,-1258.9 1356.3,-1356.3" fill="#ffb600"/>
  </g>
  <g transform="translate(0, 7921.48) scale(1, -1) translate(-10754.29, -10957.51) scale(1.00000)">
    <path d="m 13811.2,12820.3 c -637.3,-52.6 -679.9,-95.2 -732.4,-732.5 -52.6,637.3 -95.2,679.9 -732.5,732.5 637.3,52.5 679.9,95.1 732.5,732.4 52.5,-637.3 95.1,-679.9 732.4,-732.4" fill="#ffb600"/>
  </g>
</svg>
