<?xml version='1.0' encoding='UTF-8'?>
<svg xmlns="http://www.w3.org/2000/svg" viewBox="0 0 7675.84 7675.94" width="7675.84" height="7675.94">
  <g transform="translate(0, 7675.94) scale(1, -1) translate(-20270.92, -11562.09) scale(1.69312)">
    <path d="m 16300,9095.65 c -1792.9,-147.89 -1912.8,-267.78 -2060.7,-2060.71 -147.9,1792.93 -267.8,1912.82 -2060.7,2060.71 1792.9,147.88 1912.8,267.78 2060.7,2060.75 147.9,-1792.97 267.8,-1912.87 2060.7,-2060.75" fill="#ffb600"/>
  </g>
  <g transform="translate(0, 7675.94) scale(1, -1) translate(-20270.92, -11562.09) scale(1.60620)">
    <path d="m 16300,8015.46 c -455.1,-37.55 -485.6,-67.97 -523.1,-523.11 -37.5,455.14 -68,485.56 -523.1,523.11 455.1,37.54 485.6,67.97 523.1,523.11 37.5,-455.14 68,-485.57 523.1,-523.11" fill="#ffb600"/>
  </g>
  <g transform="translate(0, 7675.94) scale(1, -1) translate(-20270.92, -11562.09) scale(1.35487)">
    <path d="m 16300,10570.6 c -341.8,-28.2 -364.6,-51.1 -392.8,-392.9 -28.2,341.8 -51.1,364.7 -392.8,392.9 341.7,28.1 364.6,51 392.8,392.8 28.2,-341.8 51,-364.7 392.8,-392.8" fill="#ffb600"/>
  </g>
  <g transform="translate(0, 7675.94) scale(1, -1) translate(-20270.92, -11562.09) scale(1.58539)">
    <path d="m 16300,11054 c -173.8,-14.4 -185.4,-26 -199.7,-199.7 -14.4,173.7 -26,185.3 -199.7,199.7 173.7,14.3 185.3,25.9 199.7,199.7 14.3,-173.8 25.9,-185.4 199.7,-199.7" fill="#ffb600"/>
  </g>
</svg>
