<?xml version="1.0" encoding="UTF-8" standalone="no"?>
<svg
   xmlns:dc="http://purl.org/dc/elements/1.1/"
   xmlns:cc="http://creativecommons.org/ns#"
   xmlns:rdf="http://www.w3.org/1999/02/22-rdf-syntax-ns#"
   xmlns:svg="http://www.w3.org/2000/svg"
   xmlns="http://www.w3.org/2000/svg"
   viewBox="0 0 5015.1465 2433.7334"
   height="2433.7334"
   width="5015.1465"
   xml:space="preserve"
   id="svg2"
   version="1.1"><metadata
     id="metadata8"><rdf:RDF><cc:Work
         rdf:about=""><dc:format>image/svg+xml</dc:format><dc:type
           rdf:resource="http://purl.org/dc/dcmitype/StillImage" /></cc:Work></rdf:RDF></metadata><defs
     id="defs6" /><g
     transform="matrix(1.3333333,0,0,-1.3333333,0,2433.7333)"
     id="g10"><g
       transform="scale(0.1)"
       id="g12"><g
         transform="scale(2.30758)"
         id="g14"><path
           id="path16"
           style="fill:#996546;fill-opacity:1;fill-rule:nonzero;stroke:none"
           d="m 15003.2,6727.42 c -513.7,11.19 -1032.9,-24.98 -1548.2,-47.94 -582.6,-25.96 -1129.9,70.12 -1665.1,265.54 -379.3,138.47 -747.9,301.95 -1163.4,289.81 -397.4,-11.62 -747.68,138.91 -1110.7,283.35 -760.4,302.55 -1539.66,491.59 -2379.59,336.3 C 6500.96,7737.05 5933.7,7406.03 5241.68,7427.63 4619.6,7447.05 4074.37,7022.31 3514.39,6747 3175.04,6580.15 2835.33,6443.17 2450.86,6376.79 2070.72,6311.13 1716.52,6420.35 1347.38,6403.67 252.735,6354.16 -327.441,5382.38 193.382,4417.84 494.315,3860.52 1012.04,3622.17 1609.93,3593.11 c 816.81,-39.74 1482.5,365.32 2116.97,822.7 128.67,92.75 241.56,266.87 374.53,280.75 217.41,22.69 123.85,-237.8 203.15,-360.5 211.27,-326.91 529.74,-477.96 861.65,-620.86 67.65,-29.14 156.74,-33.29 155.27,-128 -1.26,-79.46 -90.57,-78.03 -142.1,-104.9 -156.31,-81.38 -312.88,-172.39 -302.39,-370.47 11.31,-213.34 128.57,-376.72 324.71,-474.87 28.43,-14.22 56.55,-33.98 86.84,-39 203.85,-33.81 153.63,-124.42 131.14,-294.99 -50.23,-381.18 -353.92,-621.47 -451.34,-972.23 -71.59,-257.63 -77.79,-502.081 109.9,-668.531 173.08,-153.538 426.76,-114.622 635.99,-19.718 185.56,84.201 357.08,97.417 551.74,36.663 686.52,-214.296 1387.26,-286.058 2100.47,-164.113 137.24,23.488 170.87,-20.151 203.46,-154.577 76.14,-314.0071 338.54,-433.3978 638.5,-316.3922 227.12,88.5782 416.46,244.2832 484.02,471.6192 89.01,299.578 250.04,290.434 486.76,203.46 693.8,-254.768 1458.9,102.011 1643,847.899 113.6,460.27 48.3,899.51 -347,1212.18 -351.5,278.08 -747,314.31 -1160.1,115.92 -49.9,-23.96 -104.3,-114.36 -184.8,-39.74 188.4,235.44 346.9,481.28 387.4,786.97 18.6,140.35 78.8,247.64 210.6,332.97 247.9,160.48 414.8,393.55 460.4,692.62 29.1,191.31 81.5,238.07 256.9,109.69 463.9,-339.51 963.9,-610.28 1527.5,-753.64 1268.6,-322.7 2733.3,-101.19 3326.9,1286.03 0,191.6 0,383.19 0,574.77 -203.1,632.31 -723.2,830.12 -1296.8,842.6" /></g><g
         transform="scale(2.29725)"
         id="g18"><path
           id="path20"
           style="fill:#ffffff;fill-opacity:1;fill-rule:nonzero;stroke:none"
           d="m 9955.46,4196.57 c -96.55,-42.11 -216.69,-60.79 -285.64,-130.29 -352.55,-355.49 -802.35,-389.6 -1259.99,-415.4 -126.58,-7.15 -252.04,-35.29 -377.97,-53.79 -341.19,-39.66 -682.29,-47.76 -1023.27,2.54 -446.79,103.76 -912.7,73.73 -1357.23,196.92 -287.65,79.72 -577.69,150.08 -822.59,333.69 31.25,147.36 157.06,118.65 254.52,129.27 136.99,14.92 276.11,-1.4 413.63,11.25 155.7,14.33 312.2,48.43 309.24,246.08 -2.75,182.86 -143.39,256.33 -301.63,268.43 -316.2,24.16 -642.68,72.77 -891.71,-205.87 -29.21,-32.72 -72.31,-41.52 -116.8,-29.79 -184.64,527.43 79.75,986.58 274.9,1529.51 C 4505.69,5908.81 4457.33,5692.9 4377.97,5500.49 3930.96,4416.5 2295.55,3610.59 1176.79,3925.4 411.683,4140.7 66.8785,4733.5 270.777,5485.68 c 166.384,613.79 538.624,763.56 1249.383,713.14 877.54,-62.25 1659.13,123.95 2402.74,569.37 474.66,284.32 961.2,554.79 1567.62,526.29 -23.81,-152.94 -218.44,-181.18 -216.26,-384.72 1771.77,1090.29 3503.4,1175.08 5177.24,-161.13 67.7,127.48 -87.2,195.51 -59.3,311.23 341.3,15.02 695.3,-1.67 1002.2,-142.2 1027,-470.16 2106.8,-465.19 3196.4,-423.75 234.4,8.92 470.2,20.47 703.7,5.34 653.2,-42.3 1005.5,-586.09 769.8,-1201.77 -243,-634.89 -785.7,-906.75 -1395.9,-1049.59 -982,-229.85 -1874.2,51.03 -2722.7,535.3 -470.4,268.47 -891.7,579.69 -1069.5,1143.58 100.7,-486.28 291.8,-951.12 36.4,-1427.55 -185,48.93 -171.7,302.13 -376.1,347.55 -244.7,54.33 -481.6,56.05 -718.72,-13.05 -118.62,-34.56 -204.42,-113.42 -214,-246.57 -9.14,-126.91 75.48,-185.28 177.04,-233.84 71.74,-34.29 169.46,-45.91 174.64,-156.74" /></g><g
         transform="scale(1.47835)"
         id="g22"><path
           id="path24"
           style="fill:#ffffff;fill-opacity:1;fill-rule:nonzero;stroke:none"
           d="m 15326.8,4413.5 c -182.3,74.41 -188.4,294.18 -416.3,276.05 87.7,-450.16 319.8,-847.63 400,-1299.21 126.3,-710.26 -14.1,-1305.85 -474.3,-1844.9 -73.5,-86.18 -399.6,-241.96 41.8,-254.54 16.6,-0.48 44.5,2.91 48,-4.47 75.9,-161.59 -41.8,-285.38 -105.8,-403.079 -172.3,-316.569 -409.3,-563.534 -809.2,-568.404 -166,-2.029 -237.9,109.92 -276.9,240.402 -80.8,270.168 -3.8,484.661 395.8,604.661 -483.9,146.24 -814.6,-7.78 -1139.9,-60.07 -1073.3,-172.351 -2115.5,-42.34 -3140.71,261.58 -332.87,98.69 -620.42,139.95 -945.92,-30.03 -227.14,-118.65 -516.79,-218.56 -743.12,12.44 -217.2,221.67 -128.93,500.9 -47.22,752.8 81.71,251.7 194.21,494.67 391.25,682.99 117.43,112.15 227.35,275.92 418.71,205.16 168.97,-62.5 231.68,-227.55 260.49,-397.33 23.75,-139.89 6.57,-382.66 170.26,-349.45 229.51,46.54 82.66,265.91 59.93,418.58 -49.04,330.23 -145.57,619.68 -546.01,648.43 -256.44,18.39 -120.07,151.52 -95.38,270.84 95.78,462.81 369.47,856.29 550.75,1326.81 -229.58,-64.53 -317.92,-212.4 -387.19,-351.4 -117.15,-235.06 -292.08,-310.96 -525.58,-235.74 -228.71,73.73 -430.08,212 -473.37,464.37 -44.98,262.46 175.2,363.38 356.89,480.4 654.64,421.66 1369.63,184.4 2032.42,109.04 1200.8,-136.57 2386.1,56.89 3572.9,11.37 517.4,-19.82 760.6,173.57 1065.2,500.04 231.8,248.52 601.6,573.16 945.6,296.27 390.1,-313.95 122.4,-728.13 -82.4,-1067.97 -144.3,-239.52 -326.4,-456.25 -500.7,-695.64" /></g><g
         transform="scale(1.67519)"
         id="g26"><path
           id="path28"
           style="fill:#ffffff;fill-opacity:1;fill-rule:nonzero;stroke:none"
           d="m 13788.7,2155.76 c 383,-215.98 774.5,-388.32 1176.5,-56.95 240.5,198.36 255.6,401.68 72.8,841.27 -64.7,-469.91 -208.8,-810.71 -726.6,-742.42 -383.3,50.56 -627.3,365.63 -562.5,740.46 80.6,465.67 562,905.32 1033.5,943.65 562.1,45.66 996,-241.95 1175.3,-779.02 342.3,-1025.49 -411.8,-2022.51 -1468.2,-1941.27 -719.9,55.34 -888.5,293.88 -700.8,994.28" /></g><g
         transform="scale(1.53798)"
         id="g30"><path
           id="path32"
           style="fill:#fab5bd;fill-opacity:1;fill-rule:nonzero;stroke:none"
           d="m 14870.3,6268.33 c -115.9,48.57 -228.1,111 -348.4,142.49 -189.2,49.54 -311.9,133.93 -320.5,351.89 -8.1,207.24 41.8,371.15 219.5,494.82 618.6,430.6 1631.4,143.25 1879.1,-537.04 -50.1,-154.23 -118.9,-295.17 -267,-380.38 -189.1,-66.3 -381.3,-110.84 -583.7,-81.02 -191.8,78.11 -385,69.42 -579,9.24" /></g><path
         id="path34"
         style="fill:#fab5bd;fill-opacity:1;fill-rule:nonzero;stroke:none"
         d="m 10328.5,10451.6 c 592.5,744.1 1792.1,1039.5 2690.4,681.2 457.7,-182.5 649.9,-504.1 564.2,-976.9 -82.8,-457.12 -454.9,-513.27 -832,-557.97 -551,-65.32 -1119.4,136.38 -1658.1,-109.82 -400.6,205.66 -672.8,512.99 -764.5,963.49" /><g
         transform="scale(1.51278)"
         id="g36"><path
           id="path38"
           style="fill:#ffffff;fill-opacity:1;fill-rule:nonzero;stroke:none"
           d="m 15706.7,6363.37 c 186.8,106.6 385.5,126.88 593.3,82.3 -173.1,-204.63 -359.5,-314.56 -593.3,-82.3" /></g><g
         transform="scale(1.17109)"
         id="g40"><path
           id="path42"
           style="fill:#996546;fill-opacity:1;fill-rule:nonzero;stroke:none"
           d="m 16300,10155.8 c -484.5,-570.15 -347.4,-1456.98 -922.1,-2016.34 -223.4,-217.38 -458.8,-96.31 -644.1,118.17 -267.1,309.09 -352.1,699.08 -480.5,1069.64 -65.7,189.55 -70.7,428.54 -313.6,487.73 -228.2,55.65 -278.2,207.3 -181.1,367.2 156.3,257.3 206,-85.9 304.8,-81.2 656.6,31.3 1351.9,-225.92 1952.5,245.4 201.7,158.3 230.6,-1.9 284.1,-190.6" /></g><g
         transform="scale(1.39256)"
         id="g44"><path
           id="path46"
           style="fill:#578cd1;fill-opacity:1;fill-rule:nonzero;stroke:none"
           d="m 16300,9130.08 c -65.5,-317.42 -100.3,-714.94 -534.4,-714.63 -387.4,0.28 -503.9,333.3 -508.4,677.24 -4.8,358.46 94.7,724.55 494.4,755.08 440.8,33.68 483.3,-372.09 548.4,-717.69" /></g><path
         id="path48"
         style="fill:#578cd1;fill-opacity:1;fill-rule:nonzero;stroke:none"
         d="m 13903.3,12515.2 c 35.1,-417.9 -107.5,-913 -670.2,-937.6 -548.2,-24 -670.6,488.5 -671.3,950.7 -0.7,496.2 163.3,999.6 711.7,1035.1 602.1,39 624.2,-490.7 629.8,-1048.2" /><g
         transform="scale(1.12945)"
         id="g50"><path
           id="path52"
           style="fill:#fab5bd;fill-opacity:1;fill-rule:nonzero;stroke:none"
           d="m 15730.5,10188.3 c 115.3,-142.4 569.5,258.3 485.6,-273.63 -72.4,-459.02 -137.4,-950.76 -554.9,-1242.65 -141,-98.65 -628.8,855.18 -618.1,1246.5 7.2,265.08 32.9,275.68 687.4,269.78" /></g></g></g></svg>