<?xml version="1.0" encoding="UTF-8" standalone="no"?>
<svg
   xmlns:dc="http://purl.org/dc/elements/1.1/"
   xmlns:cc="http://creativecommons.org/ns#"
   xmlns:rdf="http://www.w3.org/1999/02/22-rdf-syntax-ns#"
   xmlns:svg="http://www.w3.org/2000/svg"
   xmlns="http://www.w3.org/2000/svg"
   viewBox="0 0 6329.4131 6329.4131"
   height="6329.4131"
   width="6329.4131"
   xml:space="preserve"
   id="svg2"
   version="1.1"><metadata
     id="metadata8"><rdf:RDF><cc:Work
         rdf:about=""><dc:format>image/svg+xml</dc:format><dc:type
           rdf:resource="http://purl.org/dc/dcmitype/StillImage" /></cc:Work></rdf:RDF></metadata><defs
     id="defs6" /><g
     transform="matrix(1.3333333,0,0,-1.3333333,0,6329.4133)"
     id="g10"><g
       transform="scale(0.1)"
       id="g12"><g
         transform="scale(2.91231)"
         id="g14"></g><g
         transform="scale(2.41213)"
         id="g18"><path
           id="path20"
           style="fill:#ffffff;fill-opacity:1;fill-rule:nonzero;stroke:none"
           d="m 7350.31,10660.8 c 8.58,29.4 39.43,46.4 68.86,37.8 29.48,-8.5 46.48,-39.3 37.94,-68.8 -0.58,-2 -77.9,-274.3 -262.55,-622 234.81,-795.85 1047.29,-864.38 2096.74,-952.77 l 66.58,-5.59 c 642.62,-54.31 1584.62,-64.01 2376.72,73 564.4,97.63 1050.5,268.85 1290.5,550.14 236,276.77 300.8,621.42 295.4,931.12 -1,5.6 -1.1,11.3 -0.3,16.8 -11.1,434.3 -157.8,795.8 -158.5,797.6 -11.3,28.6 2.7,61 31.4,72.3 28.6,11.4 61,-2.7 72.3,-31.4 0.8,-1.8 153.2,-377.3 165.1,-833.6 182.5,-422.5 538.2,-694.67 937.2,-828.91 269.1,-90.5 558,-118.36 826.9,-87.43 267.1,30.72 513.6,119.36 700.4,262.01 196.3,149.83 326.8,360.33 344.7,626.63 60.3,898.7 -569.8,1012.8 -1184.9,1124.1 -302.7,54.8 -601.9,109 -827.2,250 -270.9,169.5 -440.4,394.4 -615,625.8 -160.2,212.5 -324.7,430.7 -575.4,610.2 -388.2,278 -828.8,222.5 -1013.1,181.5 2.1,-14.6 -1.5,-30 -11.4,-42.5 -19,-24.2 -54,-28.4 -78.2,-9.4 -1.9,1.5 -660.4,524.8 -1677.7,612.1 -443.14,38.1 -864.97,-31 -1214.25,-146 -396.45,-130.6 -696.31,-317.5 -824.46,-471.6 25.13,-9.4 50.42,-19.5 75.79,-30.7 28.15,-12.4 40.92,-45.3 28.52,-73.4 -12.4,-28.2 -45.31,-41 -73.46,-28.6 -879.68,386.7 -1641.5,-409.5 -2279.73,-1076.5 -153.89,-160.8 -300.81,-314.4 -438.49,-441 -261.97,-240.9 -619.87,-363.5 -969.6,-483.4 -602.94,-206.5 -1180.73,-404.5 -1120.5,-1209.65 7.22,-96.47 22.06,-191.53 44.74,-283.78 77.59,-315.74 246.16,-601.33 509.17,-799.04 263.7,-198.13 623.76,-308.86 1084.39,-274.41 140.7,10.53 290.49,34.54 449.39,73.59 798.63,196.22 1286.54,832.87 1553.9,1327.19 2.03,5.8 4.97,11.3 8.75,16.1 182.45,341.2 258.85,610.6 259.39,612.5 h -0.04" /></g><g
         transform="scale(1.97126)"
         id="g22"><path
           id="path24"
           style="fill:#f6879a;fill-opacity:1;fill-rule:nonzero;stroke:none"
           d="m 16000.9,11915.2 c 227.6,310.1 298.8,677.7 299.1,1015.7 -44.8,5.2 -91,7.9 -138.1,7.9 -435,0 -787.7,-231.5 -787.7,-517.1 0,-249.5 268.8,-457.7 626.7,-506.5" /></g><g
         transform="scale(2.0302)"
         id="g26"><path
           id="path28"
           style="fill:#6c2e23;fill-opacity:1;fill-rule:nonzero;stroke:none"
           d="m 8733.1,12666.3 c 10.19,35 46.84,55.2 81.81,45 35.02,-10.1 55.22,-46.7 45.07,-81.7 -1.67,-5.8 -567.09,-1999.4 -2260.08,-2415.4 -196.73,-48.3 -381.93,-78 -555.66,-91 -581.76,-43.5 -1039.6,98.6 -1377.41,352.4 -338.62,254.4 -555.06,620.2 -654.16,1023.3 -28.81,117.5 -47.77,237.7 -56.87,359 -79.18,1058.4 654.92,1309.9 1420.87,1572.4 402.43,137.9 814.16,278.9 1104.87,546.3 165.7,152.4 336.47,330.8 515.32,517.8 787.56,823 1727.67,1805.6 2857.21,1309 33.45,-14.7 48.62,-53.8 33.89,-87.2 -14.73,-33.5 -53.84,-48.7 -87.28,-34 -1045.17,459.5 -1950.31,-486.5 -2708.61,-1279 -182.84,-191.1 -357.4,-373.6 -521.03,-524 -311.2,-286.2 -736.43,-431.8 -1151.96,-574.3 -716.37,-245.4 -1402.85,-480.6 -1331.3,-1437.2 8.59,-114.6 26.23,-227.6 53.16,-337.2 92.19,-375.1 292.47,-714.5 604.97,-949.4 313.3,-235.4 741.1,-366.9 1288.38,-326 167.18,12.5 345.14,41 533.94,87.4 1618.42,397.6 2163.19,2318.1 2164.82,2323.7 l 0.05,0.1" /></g><g
         transform="scale(2.08658)"
         id="g30"><path
           id="path32"
           style="fill:#6c2e23;fill-opacity:1;fill-rule:nonzero;stroke:none"
           d="m 13876.1,15519.5 c 28,-21.9 32.8,-62.5 10.9,-90.4 -22,-28 -62.5,-32.8 -90.5,-10.9 -2.2,1.7 -763.3,606.7 -1939.5,707.7 -512.2,44 -999.8,-35.9 -1403.5,-168.8 -516.1,-169.9 -890.54,-422.5 -999.48,-610.5 -17.83,-30.7 -57.17,-41.3 -87.94,-23.4 -30.67,17.8 -41.22,57.2 -23.39,87.9 122.31,211.1 524.5,488.6 1070.51,668.4 418.1,137.7 923.5,220.5 1454.5,175 1215.1,-104.4 2006.1,-733.1 2008.4,-734.9 v -0.1" /></g><g
         transform="scale(2.03129)"
         id="g34"><path
           id="path36"
           style="fill:#6c2e23;fill-opacity:1;fill-rule:nonzero;stroke:none"
           d="m 15629.3,13558.8 c -13.4,34 3.2,72.5 37.3,85.9 34,13.5 72.4,-3.2 85.9,-37.2 1.5,-3.9 547.5,-1348.3 -185,-2207.3 -307.7,-360.7 -912.7,-577.1 -1610.6,-697.9 -953.2,-164.8 -2084.4,-153.3 -2855.5,-88.2 l -79,6.7 c -1308.84,110.1 -2319.77,195.3 -2613.57,1253.2 -9.8,35.1 10.88,71.5 46.02,81.2 35.15,9.8 71.54,-10.9 81.23,-46 269.09,-968.9 1240.05,-1050.7 2497.22,-1156.5 l 79,-6.6 c 763.1,-64.5 1881.8,-76 2822.3,86.7 670.2,115.9 1247.5,319.3 1532.4,653.3 680.1,797.3 163.8,2069.1 162.3,2072.7 v 0" /></g><g
         transform="scale(2.42956)"
         id="g38"><path
           id="path40"
           style="fill:#6c2e23;fill-opacity:1;fill-rule:nonzero;stroke:none"
           d="m 11850,13269.8 c -28.9,-9.6 -60.1,6.1 -69.7,35.1 -9.5,28.9 6.2,60 35.1,69.6 1.9,0.7 644.8,220.7 1192.7,-171.5 262.3,-187.8 430.9,-411.5 595.1,-629.2 167,-221.5 329.3,-436.8 580.7,-594 206.4,-129.2 492.7,-181.1 782.3,-233.5 658.8,-119.2 1333.8,-241.5 1267.3,-1231.9 -20.1,-299.2 -166.1,-535.12 -385.5,-702.72 -201.7,-153.98 -465.6,-249.47 -749.8,-282.19 -282.4,-32.48 -585.7,-3.17 -868.7,92.03 -426.8,143.57 -807.4,436.88 -1001,894.08 -11.8,28.1 1.3,60.5 29.4,72.3 28.1,11.8 60.4,-1.4 72.2,-29.4 180,-424.9 535.4,-698.01 934.5,-832.31 267.2,-89.85 553.9,-117.51 821,-86.81 265.1,30.5 509.8,118.5 695.3,260.13 194.9,148.79 324.5,357.69 342.2,622.19 59.9,892.2 -565.7,1005.5 -1176.4,1116 -300.5,54.4 -597.5,108.2 -821.2,248.2 -269,168.2 -437.3,391.5 -610.6,621.3 -159,211 -322.4,427.6 -571.3,605.9 -501.9,359.2 -1091.9,157.3 -1093.6,156.7" /></g><g
         transform="scale(1.67488)"
         id="g42"><path
           id="path44"
           style="fill:#80a5dc;fill-opacity:1;fill-rule:evenodd;stroke:none"
           d="m 13265.7,16300 c 274.8,0 497.6,-358.7 497.6,-801 0,-442.4 -222.8,-801 -497.6,-801 -274.8,0 -497.5,358.6 -497.5,801 0,442.3 222.7,801 497.5,801" /></g><g
         transform="scale(1.90911)"
         id="g46"><path
           id="path48"
           style="fill:#80a5dc;fill-opacity:1;fill-rule:evenodd;stroke:none"
           d="m 15863.5,14684.2 c 241.1,0 436.5,-314.6 436.5,-702.7 0,-388.1 -195.4,-702.7 -436.5,-702.7 -241.1,0 -436.5,314.6 -436.5,702.7 0,388.1 195.4,702.7 436.5,702.7" /></g><g
         transform="scale(1.51203)"
         id="g50"><path
           id="path52"
           style="fill:#f6879a;fill-opacity:1;fill-rule:evenodd;stroke:none"
           d="m 13519.2,16300 c 567.2,0 1026.9,-301.9 1026.9,-674.3 0,-372.4 -459.7,-674.3 -1026.9,-674.3 -567.2,0 -1027,301.9 -1027,674.3 0,372.4 459.8,674.3 1027,674.3" /></g><g
         transform="scale(1.75298)"
         id="g54"><path
           id="path56"
           style="fill:#6c2e23;fill-opacity:1;fill-rule:nonzero;stroke:none"
           d="m 14866.8,14240.1 c 32.8,26.8 81.2,22.1 108,-10.8 26.8,-32.8 22,-81.1 -10.8,-107.9 -64.8,-53.1 -81.5,-113.3 -66.4,-165 11.6,-39.3 40.3,-75.8 80,-103.4 42.2,-29.2 96.1,-47.7 155.2,-48.7 128,-2.1 280.8,78.8 401.6,307.8 19.7,37.4 66,51.8 103.4,32.1 19.2,-10.1 32.4,-27.2 37.9,-46.7 35.5,-97.7 115.6,-135.6 198.6,-135.2 68.2,0.3 138.6,24.3 192.3,62.3 46.7,32.8 78.5,74.1 79,115 0.7,44.3 -36.4,95.9 -132.1,147.5 -37.2,19.9 -51.3,66.4 -31.2,103.7 20.1,37.2 66.5,51.2 103.8,31.1 154.5,-83.1 213.9,-185.3 212.5,-284.2 -1.3,-94.3 -59.2,-178.9 -143.8,-238.5 -77.5,-54.6 -180,-89.3 -279.9,-89.8 -103.2,-0.4 -203.7,33.7 -274.8,116.7 -142.8,-202.9 -316.8,-277.2 -469.7,-274.7 -90.8,1.4 -174.1,30.2 -239.8,75.7 -68.3,47.3 -118.3,113.1 -139.9,186.2 -31.9,108.2 -3.6,228.7 116.1,326.8 v 0" /></g><g
         transform="scale(2.14553)"
         id="g58"><path
           id="path60"
           style="fill:#dfbca3;fill-opacity:1;fill-rule:nonzero;stroke:none"
           d="m 15069.1,7689.28 c -33,10.3 -51.4,45.39 -41.1,78.39 10.3,33 45.4,51.46 78.4,41.16 0.3,-0.1 33.8,-10.77 83.9,-20.93 2.7,0.42 5.5,0.61 8.3,0.61 11.1,0.04 21.3,-2.75 30.4,-7.69 148.1,-24.29 381.3,-28.06 411.8,179.72 47.8,326.07 -389.9,450.8 -391.2,451.17 -33.1,9.74 -52.1,44.56 -42.3,77.65 6.2,21.34 22.9,36.86 42.8,42.55 1049.9,300.67 670.9,1456.89 669.9,1460.2 -10.4,32.89 7.8,67.99 40.6,78.39 l 5.2,1.4 c 56.3,12.9 116.4,52.7 166.6,108.6 39.5,44 72.1,97.5 91.2,155.4 18.5,56.3 24.2,116.5 10.8,175.5 -13.9,61.1 -48.8,122.5 -111.7,179 -269,241.4 -618.5,-17.5 -619.5,-18.2 -26.9,-19.5 -64.1,-14.5 -85,10.8 -415.8,501.7 -1145.5,355.8 -1147.6,355.4 -34,-6.5 -66.8,15.8 -73.2,49.7 l -0.2,1.2 c -16.3,65.3 -53,147 -106.8,221.7 -45.7,63.2 -103.3,120.5 -170.2,156.2 -63.2,33.7 -136,48 -216.3,28.8 l -4.9,-0.9 c -48.1,-12.3 -99.5,-36.6 -154,-75.9 -348.5,-251.5 -22.9,-667.3 -21.9,-668.4 21.1,-27.4 16.1,-66.6 -11.3,-87.8 -2.4,-1.9 -5,-3.6 -7.6,-5 -40.1,-25.1 -623.1,-405.7 -578.6,-1329.69 1.6,-34.45 -25,-63.76 -59.5,-65.39 -2.3,-0.1 -4.6,-0.05 -6.9,0.09 -1.4,0 -515.2,35.42 -576.6,-158.19 l -2.8,-9.09 c -24.8,-88.55 1.5,-169.65 68.9,-240.12 75.4,-79 200.5,-145.93 362.8,-197.39 19.2,-6.11 37.4,-11.56 54.1,-16.27 33.3,-9.32 52.7,-43.9 43.3,-77.18 -9.3,-33.28 -43.8,-52.67 -77.1,-43.35 -16,4.52 -30.8,8.86 -44.4,13.01 -166.7,-186.53 -350.1,-504.03 -461.8,-798.55 -95.8,-252.94 -139.1,-482.86 -69.7,-580.88 62.6,-88.46 167.3,-112 285.1,-97.55 147.7,18.13 313.6,93.45 452.2,180.28 -11.9,14.17 -21.3,28.02 -27.7,41.25 -15.2,31 -2.4,68.38 28.6,83.53 30.9,15.24 68.4,2.33 83.6,-28.58 7.6,-15.56 22.1,-32.67 42.6,-50.94 7.8,-4.1 14.8,-9.83 20.5,-17.15 74.4,-58.4 202.2,-125.52 352,-184.38 172.9,-67.96 371.7,-121.89 549.9,-136.24 -0.9,40.46 1.1,65.39 1.1,65.72 2.4,34.53 32.3,60.49 66.9,58.07 34.5,-2.47 60.4,-32.39 58,-66.84 0,-0.46 -3.5,-46.37 1.5,-112.18 0.6,-3.68 0.9,-7.55 0.9,-11.42 12.6,-144.16 66.2,-371.38 274.5,-438.49 21.3,-6.85 43.5,-10.12 66.1,-9.93 107.7,0.7 229.4,75.83 342.4,202.19 119.1,133.02 225.8,320.94 296.1,539.21 49.9,154.83 81.3,324.44 85.7,500.2 -41,9.28 -66.5,17.39 -66.8,17.48 v 0.05" /></g><g
         transform="scale(2.15544)"
         id="g62"><path
           id="path64"
           style="fill:#6c2e23;fill-opacity:1;fill-rule:nonzero;stroke:none"
           d="m 14999.8,7653.93 c -32.8,10.25 -51.1,45.19 -40.9,78.03 10.2,32.85 45.2,51.22 78,40.97 1.4,-0.42 487.1,-154.77 532,151.01 47.6,324.58 -388.1,448.73 -389.4,449.1 -33,9.7 -51.8,44.35 -42.1,77.29 6.2,21.25 22.8,36.7 42.6,42.36 1045.1,299.29 667.8,1450.19 666.8,1453.48 -10.4,32.71 7.8,67.73 40.5,78.13 l 5.1,1.3 c 56.1,12.8 115.9,52.4 165.9,108.1 39.3,43.8 71.7,97 90.7,154.7 18.4,56 24.1,116 10.7,174.7 -13.8,60.8 -48.5,121.9 -111.2,178.2 -267.7,240.3 -615.6,-17.4 -616.5,-18.1 -26.8,-19.4 -63.8,-14.5 -84.7,10.7 -413.9,499.4 -1140.2,354.2 -1142.3,353.8 -33.8,-6.5 -66.5,15.7 -72.9,49.5 l -0.2,1.1 c -16.2,65 -52.7,146.4 -106.3,220.7 -45.5,62.9 -102.8,120 -169.4,155.5 -62.9,33.5 -135.3,47.7 -215.3,28.7 l -4.9,-1 c -47.9,-12.2 -99.1,-36.4 -153.3,-75.5 -346.9,-250.4 -22.7,-664.2 -21.7,-665.4 20.9,-27.2 16,-66.2 -11.3,-87.3 -2.4,-1.9 -5,-3.6 -7.5,-5 -40,-25 -620.3,-403.8 -576,-1323.57 1.6,-34.29 -24.9,-63.47 -59.3,-65.09 -2.2,-0.1 -4.5,-0.05 -6.8,0.09 -1.4,0 -512.9,35.26 -573.9,-157.46 l -2.8,-9.05 c -24.7,-88.15 1.4,-168.87 68.5,-239.02 75.1,-78.64 199.6,-145.26 361.1,-196.48 19.2,-6.08 37.3,-11.51 53.9,-16.19 33.1,-9.28 52.5,-43.71 43.2,-76.83 -9.3,-33.13 -43.7,-52.43 -76.8,-43.15 -21.3,6.03 -40.6,11.79 -57.7,17.17 -181.2,57.34 -323.6,135.24 -413.9,229.65 -98.4,102.9 -136.1,223.8 -98.3,358.44 l 3.8,12.99 c 72.2,227.8 470.8,247.79 632.6,246.35 -14.1,805.75 429.6,1213.65 585.7,1331.95 -88.5,140.4 -280,525.7 84.6,788.8 67.6,48.8 133.2,79.4 196.2,95.2 l 5.8,1.7 c 112.4,26.8 214.2,6.8 302.7,-40.4 84.8,-45.3 156.3,-115.6 211.8,-192.5 50.1,-69.5 87.8,-145.2 111,-213 183.6,23.6 778.8,61.2 1169.3,-363.5 121.2,71.9 450.1,225.5 725.1,-21.2 83.2,-74.7 129.9,-158.5 149.2,-243.6 18.8,-82.5 11.4,-165 -13.7,-241 -24.5,-74.4 -66.1,-142.9 -116.6,-199.1 -49.5,-55.26 -108.4,-99.01 -169,-125.37 61.6,-240.32 232.4,-1151.83 -610.5,-1497.83 154.4,-81.1 361.6,-243.71 320.8,-521.2 -66.3,-451.5 -690.6,-252.52 -692.4,-251.96 v 0.09" /></g><g
         transform="scale(2.00901)"
         id="g66"><path
           id="path68"
           style="fill:#6c2e23;fill-opacity:1;fill-rule:nonzero;stroke:none"
           d="m 14891.4,7487.48 c 2.6,36.89 34.6,64.61 71.5,62.02 36.8,-2.63 64.5,-34.59 61.9,-71.37 -0.1,-1.45 -37.5,-492.93 295.7,-600.3 22.8,-7.32 46.5,-10.8 70.6,-10.6 115,0.74 245,80.98 365.7,215.92 127.3,142.06 241.2,342.76 316.3,575.86 58.7,182.13 93.4,383.62 92,591.74 -0.2,36.88 29.5,66.9 66.4,67 36.8,0.14 66.8,-29.62 67,-66.41 1.5,-222.99 -35.6,-438.47 -98.3,-633.15 -80.9,-251.06 -204.9,-468.53 -344,-624.04 -145.5,-162.56 -310.2,-259.33 -464.6,-260.42 -38.2,-0.25 -75.7,5.27 -111.9,16.97 -434,139.82 -388.4,735.09 -388.3,736.78" /></g><g
         transform="scale(1.85225)"
         id="g70"><path
           id="path72"
           style="fill:#6c2e23;fill-opacity:1;fill-rule:nonzero;stroke:none"
           d="m 14902.7,8431.66 c -17.6,35.9 -2.7,79.2 33.2,96.75 35.8,17.65 79.2,2.7 96.7,-33.1 38.8,-79.31 234.2,-195.49 480.9,-292.4 225.9,-88.81 489.8,-156.78 714.9,-161.91 39.9,-0.76 71.6,-33.8 70.8,-73.75 -0.8,-39.95 -33.8,-71.7 -73.7,-70.94 -243.8,5.51 -525.6,77.58 -764.8,171.57 -277.5,109.11 -503.7,253.05 -558,363.89 v -0.11" /></g><g
         transform="scale(1.71939)"
         id="g74"><path
           id="path76"
           style="fill:#6c2e23;fill-opacity:1;fill-rule:nonzero;stroke:none"
           d="m 15751.9,10793.2 c 29.7,31.2 79.2,32.4 110.3,2.7 31.3,-29.6 32.5,-79.1 2.8,-110.3 -216.3,-226.3 -462.5,-645.2 -609.2,-1032.33 -119.6,-315.64 -173.7,-602.54 -87,-724.85 78.2,-110.39 208.8,-139.7 355.7,-121.73 213,26.11 456.4,147.61 642.5,276.38 35.4,24.48 84,15.64 108.6,-19.84 24.4,-35.47 15.5,-84.1 -20,-108.58 -203.3,-140.75 -472.1,-273.88 -712.1,-303.31 -201.5,-24.6 -384.4,21.17 -501.9,187.16 -120.7,170.41 -68.2,510.07 68.1,869.73 153.4,404.77 412.9,844.97 642.2,1084.97 v 0" /></g><g
         transform="scale(1.8335)"
         id="g78"><path
           id="path80"
           style="fill:#6c2e23;fill-opacity:1;fill-rule:evenodd;stroke:none"
           d="m 16054.9,13078.4 c 0,0 38.4,153.4 141.7,103.3 103.4,-50.2 35.5,-301.1 -60.4,-338 -96,-36.9 -280.5,90 -271.6,183 8.9,93 190.3,51.7 190.3,51.7 v 0" /></g><g
         transform="scale(2.11683)"
         id="g82"><path
           id="path84"
           style="fill:#6c2e23;fill-opacity:1;fill-rule:evenodd;stroke:none"
           d="m 16161.2,10646.7 c 0,0 13.1,118.2 -72.8,109.8 -85.9,-8.3 -103.6,-202.9 -45.7,-253.9 57.9,-51.1 221.1,-9.9 239.2,58 18.1,67.8 -120.7,86.1 -120.7,86.1" /></g><g
         transform="scale(1.85816)"
         id="g86"><path
           id="path88"
           style="fill:#6c2e23;fill-opacity:1;fill-rule:evenodd;stroke:none"
           d="m 16079.6,12014.7 c 121.8,0 220.4,-98.7 220.4,-220.4 0,-121.7 -98.6,-220.4 -220.4,-220.4 -121.7,0 -220.4,98.7 -220.4,220.4 0,121.7 98.7,220.4 220.4,220.4" /></g><g
         transform="scale(2.05098)"
         id="g90"><path
           id="path92"
           style="fill:#6c2e23;fill-opacity:1;fill-rule:evenodd;stroke:none"
           d="m 16100.3,10275.8 c 110.3,0 199.7,-89.4 199.7,-199.6 0,-110.34 -89.4,-199.71 -199.7,-199.71 -110.2,0 -199.6,89.37 -199.6,199.71 0,110.2 89.4,199.6 199.6,199.6" /></g><g
         transform="scale(1.94375)"
         id="g94"><path
           id="path96"
           style="fill:#6c2e23;fill-opacity:1;fill-rule:evenodd;stroke:none"
           d="m 16144.8,10922 c 97.7,-36.4 155.2,-124.2 128.4,-196 -26.8,-71.8 -127.6,-100.6 -225.3,-64.2 -97.7,36.4 -155.2,124.2 -128.5,196 26.8,71.9 127.7,100.6 225.4,64.2" /></g><g
         transform="scale(1.93054)"
         id="g98"><path
           id="path100"
           style="fill:#6c2e23;fill-opacity:1;fill-rule:nonzero;stroke:none"
           d="m 15991,10658.3 c -17.5,-7.9 -38.1,-0.3 -46,17.2 -8.1,17.5 -0.3,38 17.1,46 l 223.7,102.9 c 17.5,8 38.1,0.2 46.1,-17.2 1,-2.1 1.7,-4.4 2.3,-6.7 l 61.5,-268.2 c 4.3,-18.8 -7.5,-37.4 -26.1,-41.7 -18.8,-4.3 -37.4,7.4 -41.7,26.1 l -52,226.6 -184.8,-85 h -0.1" /></g><g
         transform="scale(1.82627)"
         id="g102"><path
           id="path104"
           style="fill:#f6879a;fill-opacity:1;fill-rule:evenodd;stroke:none"
           d="m 16064.2,11727.8 c 141.7,-40.5 235.8,-146.5 210,-236.7 -25.8,-90.2 -161.6,-130.3 -303.4,-89.8 -141.8,40.5 -235.8,146.4 -210.1,236.6 25.8,90.2 161.6,130.5 303.5,89.9" /></g><g
         transform="scale(2.05521)"
         id="g106"><path
           id="path108"
           style="fill:#f6879a;fill-opacity:1;fill-rule:evenodd;stroke:none"
           d="m 16090.4,9714.56 c 126.1,-36.06 209.6,-130.21 186.7,-210.34 -22.9,-80.14 -143.6,-115.91 -269.6,-79.85 -126,36.01 -209.6,130.16 -186.7,210.3 22.9,80.13 143.7,115.89 269.6,79.89" /></g><g
         transform="scale(1.96909)"
         id="g110"><path
           id="path112"
           style="fill:#f6879a;fill-opacity:1;fill-rule:evenodd;stroke:none"
           d="m 15170.1,9225.06 c 97.7,-29.1 899.1,596.12 1014.5,501.2 115.4,-94.87 -169.2,-836.48 -279.9,-804.84 -110.6,31.64 -488.8,1130.78 -575.5,1115.68 -154.5,-27 -286.3,-774.1 -159.1,-811.99 v -0.05" /></g><g
         transform="scale(1.96607)"
         id="g114"><path
           id="path116"
           style="fill:#6c2e23;fill-opacity:1;fill-rule:nonzero;stroke:none"
           d="m 16180.6,9706.13 c -36.6,30.06 -259.7,-103.61 -479.3,-240.53 105.9,-245.42 208.3,-477.45 240.3,-486.56 1.5,-0.41 5.9,10.33 19.3,26.55 31.2,38.05 66.8,102.19 100.7,177.36 34.3,76.45 66.5,163.98 90.4,247.55 38.3,134.23 57.4,252.03 28.6,275.63 z m -565.1,-294.19 c -197.9,-124.06 -374.2,-234.48 -435.1,-216.32 -41.4,12.31 -65.9,54.32 -76.6,115.1 -10.6,60.93 -8.9,146.49 1.9,238.24 10.7,90.03 30.4,187.08 56,272.98 43.4,145.52 107.9,262.26 183.3,275.46 77.3,13.5 196.5,-260.81 320.1,-547.62 242.5,150.35 492.4,292.97 573.3,226.49 61.6,-50.56 48.6,-204.93 1.3,-370.79 -24.8,-86.83 -58.7,-178.68 -95.1,-259.66 -36.9,-82.24 -76.9,-153.6 -113.4,-198.06 -37.2,-45.27 -76.3,-67.44 -114.5,-56.51 -69.3,19.79 -180.8,264.9 -293.5,525.37 l -7.7,-4.78 z m -409.1,-128.99 c 21.9,-6.56 181.6,93.53 361,205.94 l 19.3,12.16 -0.3,0.91 c -110.9,257.47 -218.4,506.94 -225.8,505.64 -36.2,-6.4 -77.5,-96.75 -111.6,-211.65 -24.1,-80.82 -42.7,-172.42 -52.8,-257.67 -9.9,-83.46 -11.7,-159.76 -2.6,-211.89 4.6,-26.1 9,-42.37 12.8,-43.44" /></g><g
         transform="scale(1.82831)"
         id="g118"><path
           id="path120"
           style="fill:#ffffff;fill-opacity:1;fill-rule:nonzero;stroke:none"
           d="m 14306.7,8390.63 c 5.6,2.85 11.4,4.93 17.5,6.29 243.3,87.68 350.8,159.88 351.4,160.26 33.8,22.32 79.3,13.07 101.7,-20.78 22.4,-33.81 13.2,-79.31 -20.7,-101.74 -0.5,-0.33 -78.5,-52.78 -247.9,-123.06 187.5,-99.55 558.6,-260.19 960.8,-232.62 287.7,19.74 485.2,125.63 613.1,277.36 115.7,137.06 176.5,312.97 196.8,497.34 20.6,188.43 -0.9,385 -49.8,559.04 -69,245.86 -189.3,442.38 -317.3,497.62 -148.6,64.16 -266.3,77.94 -357.1,65.53 -118,-16.25 -189.3,-76.74 -221.8,-124.05 -66.4,-204.35 -142.1,-318.99 -142.6,-319.7 -22,-33.96 -67.5,-43.59 -101.4,-21.6 -34,22.15 -43.6,67.49 -21.6,101.51 0.4,0.6 67.6,102.28 127,285.79 1.1,6.5 3.1,12.9 6.1,19.08 59.6,191.7 108.6,466.6 69.1,805.3 -7.1,61.1 -14.9,132.8 -22.6,204.4 -35.6,329.5 -70.1,649.4 -165.4,901.8 -956.6,-116.6 -2003.5,-98.7 -2748.1,-35.8 l -87.8,7.4 -81.8,6.8 c 59.3,-33.5 118.2,-70 177,-109.3 128.6,-86.1 238.4,-191.5 330.5,-311.4 271.8,-353.7 389,-833.1 382.2,-1307 -6.8,-472.48 -137.1,-941.49 -360.6,-1275.41 -79.9,-119.51 -172.2,-222.39 -275.7,-302.74 l -4.8,-4.05 c -75.6,-58.19 -158,-109.71 -245.2,-154.45 234.8,-106.72 687.9,-258.49 1342.3,-149.48 349.2,58.19 610.8,131.81 796.7,197.66" /></g><g
         transform="scale(1.44848)"
         id="g122"><path
           id="path124"
           style="fill:#ffffff;fill-opacity:1;fill-rule:nonzero;stroke:none"
           d="m 14661.9,12354.6 c -0.2,-51 -41.8,-92.3 -92.9,-92.1 -51.1,0.2 -92.4,41.8 -92.1,92.9 0,2.6 11.1,911.8 -671.9,1029.9 -86.6,15.1 -172,13.5 -254.4,-3 -197.3,-39.3 -379.6,-164.4 -525.7,-351.8 -150.6,-192.9 -262.5,-451.2 -314.3,-750.5 -45,-260.5 -44.2,-551.5 16.6,-857 34.8,-175 105,-325.1 201.8,-451.1 11.1,-14.4 22.6,-28.6 34.4,-42.5 l 4.7,-5.4 c 176.7,-204.4 429,-341.2 714.3,-414.5 312.6,-80.3 664.5,-84.1 1001.8,-16.9 321,63.9 627,192.1 871.2,379.7 l 5.6,3.8 c 113.7,88.5 216.6,203.8 307,339 262.7,392.6 416,947.5 423.9,1509 8.1,559.8 -128.3,1123.5 -444.6,1535.1 -104.2,135.8 -228.1,254.9 -372.9,351.7 -187.2,125.3 -376.6,226.3 -565.9,303.4 -2.3,0.8 -4.6,1.7 -6.9,2.7 -29.3,11.9 -58.8,23.2 -88.1,33.9 -374.5,36.1 -725.8,78.5 -1048.3,141.4 -24.7,-2.5 -49.2,-5.5 -73.7,-8.8 -574,-78.7 -1104.1,-391.7 -1521.5,-923 -289.8,-368.7 -459.6,-862 -495.9,-1352.3 -23.9,-320.5 9.1,-638.7 102.6,-918.7 91.9,-275.4 242.5,-514 454.8,-680.9 130,-102.1 283.9,-177.8 462.6,-219 -68.8,118 -119.8,250.4 -149.1,397.7 -65.3,328.3 -66,642 -17.3,923.8 57,329.6 182.2,616.5 351.3,833.2 173.5,222.5 393.8,371.8 636.2,420 103.9,20.7 211.6,22.7 321.1,3.7 839.1,-145.1 825.7,-1210.5 825.6,-1213.5 v 0.1" /></g><g
         transform="scale(1.46498)"
         id="g126"><path
           id="path128"
           style="fill:#6c2e23;fill-opacity:1;fill-rule:nonzero;stroke:none"
           d="m 13736.2,15086.9 c -18,3.3 -35.9,6.7 -53.8,10.1 17.8,-3.4 35.8,-6.8 53.8,-10.1 z m 66.9,-11.8 c -18.2,3.1 -36.3,6.3 -54.5,9.6 18.2,-3.3 36.3,-6.5 54.5,-9.6 z m 64.4,-10.9 c -16.1,2.7 -32,5.3 -48.1,8.1 16.1,-2.8 32,-5.4 48.1,-8.1 z m 69.9,-11 c -16.9,2.5 -33.5,5.1 -50.2,7.8 16.7,-2.7 33.3,-5.3 50.2,-7.8 z m 425.8,-56.4 c -18.7,2.2 -37.1,4.3 -55.7,6.5 z m 322.3,-33.4 v 0 l -15.8,1.5 z m -1058.8,144.5 h 0.2 c 15.1,-3 30.3,-6.1 45.6,-9.1 -15.3,3 -30.6,6 -45.8,9.1 z m 870.1,-2892.4 c -0.2,-50.5 -41.3,-91.3 -91.9,-91.1 -50.5,0.2 -91.3,41.4 -91.1,91.9 0,2.6 11.1,901.5 -664.2,1018.3 -85.7,14.9 -170.1,13.3 -251.5,-3 -195.2,-38.8 -375.4,-162.6 -519.9,-347.8 -148.9,-190.8 -259.5,-446.2 -310.7,-742.1 -44.5,-257.5 -43.7,-545.3 16.4,-847.4 34.4,-173 103.8,-321.4 199.5,-446 11,-14.2 22.4,-28.2 34,-42 l 4.7,-5.3 c 174.7,-202.1 424.1,-337.4 706.2,-409.9 309.1,-79.3 657.1,-83.1 990.6,-16.7 317.3,63.2 619.9,190 861.4,375.4 l 5.5,3.9 c 112.3,87.5 214.1,201.4 303.5,335.1 259.8,388.1 411.3,936.9 419.2,1492 7.9,553.5 -126.9,1110.8 -439.7,1517.9 -103,134.2 -225.5,251.9 -368.6,347.7 -216.1,144.6 -435,256.3 -653.5,336.2 173.5,-16.8 351.8,-32.1 534.4,-47.6 74,-41.9 147.6,-87.4 220.9,-136.5 160.6,-107.4 297.7,-239 412.5,-388.6 339.2,-441.4 485.5,-1039.8 477,-1631.2 -8.5,-589.6 -171.1,-1174.9 -450,-1591.7 -99.7,-149.1 -215,-277.5 -344,-377.8 l -6,-5 c -264.3,-203 -593.6,-341.4 -937.5,-409.9 -358.4,-71.3 -734.6,-66.7 -1071,19.6 -305.2,78.3 -578.1,224 -776.9,441.5 -289.2,28.2 -530.4,129.4 -725.7,282.9 -239.5,188.2 -408.2,454.1 -510.1,759.3 -100.4,300.8 -136.1,639.7 -110.8,979.3 38.6,519.7 219.6,1043.8 529,1437.6 362.2,461 806.8,767.4 1293.4,909.9 136,-39.5 279.1,-73 428.2,-102.1 -24.4,-2.5 -48.6,-5.4 -72.9,-8.7 -567.5,-77.8 -1091.7,-387.2 -1504.4,-912.5 -286.5,-364.6 -454.4,-852.3 -490.3,-1337.1 -23.7,-316.9 9,-631.5 101.3,-908.4 91,-272.2 239.9,-508.2 449.9,-673.2 128.5,-101 280.7,-175.8 457.2,-216.5 -67.9,116.6 -118.3,247.6 -147.3,393.2 -64.5,324.5 -65.2,634.8 -17.1,913.4 56.4,325.9 180.1,609.5 347.3,823.8 171.6,220 389.4,367.6 629,415.3 102.8,20.4 209.2,22.4 317.6,3.6 829.6,-143.4 816.4,-1196.8 816.3,-1199.8 l 0.1,0.1" /></g><g
         transform="scale(1.66002)"
         id="g130"><path
           id="path132"
           style="fill:#6c2e23;fill-opacity:1;fill-rule:nonzero;stroke:none"
           d="m 16163.3,9424.68 c 37.2,24.58 87.4,14.4 112.1,-22.89 24.6,-37.23 14.4,-87.35 -22.9,-112.05 -1.2,-0.78 -399,-267.94 -1346.3,-425.83 -940.8,-156.81 -1528.7,150.42 -1720.6,250.72 l -9.3,4.87 c -39.6,20.67 -54.9,69.4 -34.2,108.92 20.6,39.51 69.4,54.82 108.8,34.15 l 9.4,-4.87 c 180,-93.98 731.5,-382.17 1619.3,-234.16 913.2,152.23 1282.7,400.36 1283.7,401.14 v 0" /></g><g
         transform="scale(1.73879)"
         id="g134"><path
           id="path136"
           style="fill:#6c2e23;fill-opacity:1;fill-rule:nonzero;stroke:none"
           d="m 12497.6,12440.1 c -24.9,-22.9 -62.9,-27.4 -93,-8.7 -8.4,5.2 -15.5,11.7 -21.1,19.2 37.8,-3.5 75.8,-7 114.1,-10.5 z M 15973,10022.9 c -23.2,-35.7 -71,-45.82 -106.7,-22.7 -35.7,23.3 -45.8,71 -22.7,106.7 0.8,1.3 296.5,448.1 212.7,1167.4 -7.5,64.1 -15.7,139.6 -23.8,214.8 -37.4,346.5 -73.8,682.8 -174,948.3 53.1,6.6 106,13.5 158.6,20.8 95.8,-276 131.9,-609.8 169,-952.8 7.2,-67.1 14.6,-134.9 23.7,-213.7 90.2,-774.2 -235.9,-1267.3 -236.9,-1268.8 h 0.1" /></g><g
         transform="scale(1.84493)"
         id="g138"><path
           id="path140"
           style="fill:#6c2e23;fill-opacity:1;fill-rule:nonzero;stroke:none"
           d="m 14170.4,8189.38 c -33.4,22.28 -42.5,67.59 -20.2,101.14 22.3,33.5 67.6,42.55 101.2,20.33 1.4,-1.03 508.6,-343.59 1078.8,-304.51 285.1,19.56 480.8,124.55 607.6,274.86 114.5,135.83 174.8,310.15 194.9,492.86 20.5,186.73 -0.9,381.54 -49.3,554.01 -68.4,243.64 -187.6,438.39 -314.4,493.14 -147.3,63.58 -263.9,77.23 -353.9,64.93 -122,-16.8 -193.5,-81.2 -223.8,-128.79 -21.5,-33.93 -66.5,-44.01 -100.5,-22.43 -34,21.57 -44.1,66.56 -22.5,100.54 46.3,72.79 152.4,170.84 327.4,194.84 113.5,15.7 256.6,0.1 430.8,-75.11 167.3,-72.19 317.3,-303.91 397.1,-587.66 53,-189.06 76.4,-403.05 53.9,-608.81 -23,-209.71 -93.7,-411.56 -228.6,-571.4 -150.9,-178.92 -379.8,-303.59 -709.1,-326.19 -620.2,-42.55 -1167.8,327.38 -1169.4,328.41 v -0.16" /></g><g
         transform="scale(1.79045)"
         id="g142"><path
           id="path144"
           style="fill:#ffffff;fill-opacity:1;fill-rule:evenodd;stroke:none"
           d="m 14291.2,11880.4 c 0,0 823.2,843 1416,628.1 592.8,-214.8 548.5,-983.7 105.7,-1305.8 -442.9,-322.2 -1108.4,-366.8 -1108.4,-366.8 l -413.3,1044.5" /></g><g
         transform="scale(1.78301)"
         id="g146"><path
           id="path148"
           style="fill:#6c2e23;fill-opacity:1;fill-rule:nonzero;stroke:none"
           d="m 14404.4,11877.2 c -29.1,-29.6 -76.7,-30 -106.4,-0.9 -29.6,29.2 -30,76.8 -0.9,106.4 2.5,2.6 860.1,881.2 1501.3,648.8 155.4,-56.3 271.9,-147.5 352.7,-258.6 79.2,-108.8 123.5,-236.7 136.3,-369.5 12.6,-130.7 -5.7,-266.3 -51.7,-393 -59.7,-164.8 -166.3,-315.5 -312.8,-422 -462.2,-336.2 -1149.8,-382.3 -1151.8,-382.4 -41.5,-3 -77.5,28.3 -80.5,69.8 -2.9,41.6 28.4,77.6 69.9,80.5 1.8,0.1 646.8,43.4 1074,354.1 121.2,88.2 209.8,213.7 259.7,351.2 38.4,106.1 53.8,219.1 43.4,327.6 -10.2,106.4 -45.6,208.5 -108.7,295.3 -63.8,87.8 -156.9,160.2 -282,205.5 -549.4,199.1 -1340.3,-610.5 -1342.6,-612.9 l 0.1,0.1" /></g></g></g></svg>