<?xml version="1.0" encoding="UTF-8" standalone="no"?>
<svg
   xmlns:dc="http://purl.org/dc/elements/1.1/"
   xmlns:cc="http://creativecommons.org/ns#"
   xmlns:rdf="http://www.w3.org/1999/02/22-rdf-syntax-ns#"
   xmlns:svg="http://www.w3.org/2000/svg"
   xmlns="http://www.w3.org/2000/svg"
   viewBox="0 0 6666.6665 6666.6665"
   height="6666.6665"
   width="6666.6665"
   xml:space="preserve"
   id="svg2"
   version="1.1"><metadata
     id="metadata8"><rdf:RDF><cc:Work
         rdf:about=""><dc:format>image/svg+xml</dc:format><dc:type
           rdf:resource="http://purl.org/dc/dcmitype/StillImage" /></cc:Work></rdf:RDF></metadata><defs
     id="defs6" /><g
     transform="matrix(1.3333333,0,0,-1.3333333,0,6666.6667)"
     id="g10"><g
       transform="scale(0.1)"
       id="g12"><g
         transform="scale(3.06748)"
         id="g14"></g><g
         transform="scale(2.40861)"
         id="g18"><path
           id="path20"
           style="fill:#fcfab1;fill-opacity:1;fill-rule:nonzero;stroke:none"
           d="m 11570,15671.9 c 175.7,118.6 384.5,184.1 606,202.2 l 10.8,0.8 c 1.2,12.8 1.7,25.2 1.7,37.4 -0.4,95.3 -37,181.2 -94,247.7 -57.2,66.8 -134.7,114.1 -216.8,131.9 -24.5,5.3 -48.8,8.1 -72.3,8 -98.3,-0.4 -189,-46.8 -256.5,-116.2 -46.8,-48.1 -82.2,-106.9 -101,-168.9 -18.2,-60.2 -20.8,-123.2 -3,-181.8 18.1,-59.4 58.1,-115.5 125.1,-161.1 v 0" /></g><g
         transform="scale(2.27083)"
         id="g22"><path
           id="path24"
           style="fill:#fcfab1;fill-opacity:1;fill-rule:nonzero;stroke:none"
           d="m 14650.3,16059.4 c 171.9,-211 268.7,-424.1 304.1,-628.4 148.3,13.6 248.6,65.1 310.4,135.9 45.5,52.1 70.9,115.6 79.8,182.3 9.1,69.1 0.6,141.8 -21.6,209.6 -38.5,117.1 -117.2,217 -215.9,254.1 -231.2,87.1 -394,-74.4 -456.8,-153.5 v 0" /></g><g
         transform="scale(2.12096)"
         id="g26"><path
           id="path28"
           style="fill:#fcfab1;fill-opacity:1;fill-rule:nonzero;stroke:none"
           d="m 12909.8,15936.3 c -69.3,96.5 -144.8,220.1 -203.6,363.7 -89.2,-20.1 -263.2,-81.7 -325.8,-260.4 -20.1,-57.3 -13,-114.3 13.8,-160.3 18.7,-31.9 46.7,-58.8 81.7,-77.1 36.2,-19 80.3,-29 129.6,-26.3 89.5,4.8 195.2,51.5 304.3,160.4 v 0" /></g><g
         transform="scale(1.9776)"
         id="g30"><path
           id="path32"
           style="fill:#fcfab1;fill-opacity:1;fill-rule:nonzero;stroke:none"
           d="m 16274.8,16300 c -15.2,-5.9 -30.6,-11.6 -46.1,-17.1 -239.5,-85.1 -509.7,-121.7 -792.6,-96.1 -33.8,-95.3 -77.4,-302.5 130.7,-401.8 8.7,-4.2 15.8,-7.3 21.1,-9.3 121.3,-46.8 251.2,2.7 372,105.2 119.7,101.5 229.1,253.3 315,419.1 h -0.1" /></g><g
         transform="scale(2.32853)"
         id="g34"><path
           id="path36"
           style="fill:#fcfab1;fill-opacity:1;fill-rule:nonzero;stroke:none"
           d="m 11677.4,14953.4 c 2.6,-5.1 4.5,-10.5 5.8,-16.1 57.4,-155.8 141.4,-286.4 212.1,-379.1 4,-4.1 7.4,-8.5 10.2,-13.3 63.1,-80.9 113.6,-130 121.5,-137.7 l 0.7,-0.6 c 571.6,-537.5 1223.2,-622.8 1710.1,-450 136.3,48.4 259.6,117 364.2,201.4 1.6,1.5 3.2,2.8 4.9,4 31.3,25.6 61,52.6 88.8,80.9 120.3,122.5 206,269.5 244.8,431.3 67.5,281.4 -6.8,610.2 -287.3,936.9 -1.8,1.9 -3.5,3.8 -5,5.8 -68.7,79.4 -149.5,158.5 -243.4,236.9 -111.3,92.8 -234.1,172.1 -363.2,236.7 -278.2,139.1 -586.2,209.5 -874.6,198 h -0.2 c -20.7,-0.8 -41.1,-2 -61.5,-3.7 -300.3,-24.5 -574.1,-141.3 -761.6,-366.2 -47.9,-57.4 -90.3,-121.9 -126.2,-193.8 -141,-282 -117.9,-550.8 -40.1,-771.4 v 0" /></g><g
         transform="scale(1.43076)"
         id="g38"><path
           id="path40"
           style="fill:#ffffff;fill-opacity:1;fill-rule:nonzero;stroke:none"
           d="m 13523.9,14151.6 c 5.1,0.5 10.3,0.5 15.6,0.1 l 792.7,3.4 372.2,696.7 c -113.9,33 -235.6,79.1 -360.1,136.1 -101.1,-123 -325.1,-356 -583.1,-371.3 -366.6,-22 -554.5,321 -555.1,322 -29.8,53.1 -10.8,120.3 42.3,150.1 53.1,29.8 120.4,10.8 150.1,-42.3 0.4,-0.6 122.6,-223.4 349.7,-209.8 156.1,9.3 306.3,151.4 393.8,251.9 -203.3,109.5 -406.9,243.7 -589.5,392.6 -218.8,178.6 -409.4,379.5 -536.1,586 -47.2,76.9 -85.7,154.8 -113.8,232.9 -197,-129.9 -595.3,-449.5 -828.4,-1026.2 -266.1,-658.2 307.5,-1050.8 431.7,-1126.4 l 1018,4.2 v 0" /></g><g
         transform="scale(1.44041)"
         id="g42"><path
           id="path44"
           style="fill:#ffffff;fill-opacity:1;fill-rule:nonzero;stroke:none"
           d="m 16300,8548.88 c -115.9,196.96 -200.3,433.69 -267.1,704.66 -90,364.34 -148.5,792.36 -210.7,1269.66 -108.6,835.2 -54.2,2828.3 -38.5,3324.9 l -1481,-6.2 h -0.1 -0.4 l -757.5,-3.2 c -18.1,-343.3 -55.3,-1518.3 188.6,-2796.5 143,-749.4 361.4,-1252.43 607.9,-1602.05 238.8,-338.65 505.4,-533.32 755,-669.74 376.1,-93.1 778.2,-165.78 1203.8,-221.53 v 0" /></g><g
         transform="scale(1.62714)"
         id="g46"><path
           id="path48"
           style="fill:#ddf3fc;fill-opacity:1;fill-rule:nonzero;stroke:none"
           d="m 15421.5,7474.3 c 301.4,214.06 494.1,601.86 618.7,1017.86 131.2,438.32 186.3,907.67 213,1245.51 46.8,592.83 -1.3,2135.23 -14.7,2530.73 l -2072.4,-8.7 c -13.4,-424.2 -62.4,-2189.9 32.4,-2918.99 54.1,-415.88 105.1,-788.5 182.7,-1102.8 71.1,-288.23 164.4,-525.95 303.3,-700.86 204.8,-22.62 415.3,-41.3 631.2,-56.23 35.6,-2.46 70.9,-4.61 105.8,-6.52 v 0" /></g><g
         transform="scale(1.82639)"
         id="g50"><path
           id="path52"
           style="fill:#ffffff;fill-opacity:1;fill-rule:nonzero;stroke:none"
           d="m 15344.1,6813.13 c 292.7,182.16 482.3,465.67 611.5,789.15 133.6,334.65 203.4,714.03 254.8,1070.47 89.6,620.02 65.9,1922.25 57.8,2264.75 l -1628.7,-6.8 c 12.3,-362.5 54.8,-1737.58 12.9,-2268.84 -24.4,-309.41 -75.1,-739.99 -196.5,-1145.49 -98.9,-330.27 -245.1,-644.17 -462.7,-866.13 512.2,-6.52 960.1,54.75 1350.9,162.89 v 0" /></g><g
         transform="scale(2.03407)"
         id="g54"><path
           id="path56"
           style="fill:#ddf3fc;fill-opacity:1;fill-rule:nonzero;stroke:none"
           d="m 9592.06,6452.59 c -931.53,-9.98 -1526.89,-153 -1789.07,-338.78 -88.84,-62.98 -133.43,-126.94 -133.78,-187.41 -0.34,-61.26 43.91,-127.62 132.69,-194.64 267.2,-201.76 884.78,-372.3 1855.74,-414.09 901.66,-38.79 1878.56,-45.72 2759.36,-29.2 945.1,17.65 1780.5,62.43 2293,123.74 491.7,58.8 886.2,113.91 1161.5,202.35 252.7,81.27 400.7,188.69 426.1,353.63 1.8,11.36 2.4,22.71 1.8,33.92 -3.8,71.38 -62.9,132.4 -160.2,183.38 -114.1,59.83 -275.5,103.29 -463.2,132.34 -284.5,44.05 -626.9,54.18 -958,37.66 -16.6,-10.22 -33.4,-20.35 -50.4,-30.43 -241.2,-142.03 -518,-264 -834.5,-352.99 -2.2,-0.73 -4.5,-1.33 -6.7,-1.87 -417.8,-116.61 -904.8,-175.75 -1470.5,-147.58 l -1.8,0.05 c -37.3,1.92 -74.9,4.08 -112.8,6.73 -580.6,40.27 -1114.5,113.37 -1592.4,232.1 -4,0.69 -8,1.67 -11.9,2.95 -386.8,96.95 -736.84,223.98 -1044.94,388.14 v 0" /></g><g
         transform="scale(1.27896)"
         id="g58"><path
           id="path60"
           style="fill:#ddf3fc;fill-opacity:1;fill-rule:nonzero;stroke:none"
           d="m 15338.9,10496.5 c 3.3,-1.7 6.5,-3.5 9.6,-5.3 292.1,-157.4 609.9,-292.9 951.5,-409.2 -119.6,113.9 -237.5,247.9 -350.3,407.9 -295.7,419.3 -556.4,1017.2 -725.1,1900.8 -276.1,1446.7 -238.4,2778.8 -217.3,3193.9 l -1041.8,-4.4 c -5.5,-0.4 -11.1,-0.4 -16.6,-0.1 l -783.2,-3.3 c -216.9,-2190.9 305.3,-3626.4 1389.5,-4548.7 235.1,-200 497,-376.4 783.7,-531.7 v 0.1" /></g><g
         transform="scale(2.24363)"
         id="g62"><path
           id="path64"
           style="fill:#ddf3fc;fill-opacity:1;fill-rule:nonzero;stroke:none"
           d="m 13956.7,6261.77 c 367,-118.74 727.8,-105.32 1052.3,-0.31 399.4,129.2 744.2,397.03 978,727.74 83.6,118.2 149.2,242.91 197,368.69 88.9,234.44 116,472.72 81.1,679.88 -33.9,200.97 -126.5,371.9 -277.8,478.87 -42,29.68 -88.4,54.55 -139.3,73.85 -470.6,178.5 -1009,-159.61 -1137,-247.45 -0.4,-65.48 -1.8,-133.41 -4.3,-202.36 135.4,81.75 366.7,189.7 602.7,155.02 75.6,-11.14 137.4,-43.99 184.9,-93.33 47.3,-49.12 79.2,-113.61 95.5,-188.18 15.3,-70.11 16.8,-149.71 4.4,-233.86 -29.9,-203.69 -142.7,-438.08 -340.3,-628.4 -345.5,-332.9 -716,-306.2 -855.1,-280.71 -105.1,-192.05 -249.6,-404.21 -442.1,-609.45 v 0" /></g><g
         transform="scale(2.00565)"
         id="g66"><path
           id="path68"
           style="fill:#ddf3fc;fill-opacity:1;fill-rule:nonzero;stroke:none"
           d="m 16299.6,9370.78 c 0,1.94 0,3.94 0,5.88 0.4,259.42 -11.1,480.34 -18,589.38 l -913.8,-3.79 c -3.6,-0.3 -7.2,-0.3 -10.8,-0.04 l -385.7,-1.65 c 7.4,-319.5 28.8,-1512.23 -54,-2085.16 -48.2,-333.66 -114,-690.1 -241.9,-1010.49 -77.4,-193.91 -177.3,-373.9 -309.3,-527.07 154.9,63.13 298,134.62 429.8,212.3 21.5,12.67 42.6,25.53 63.5,38.5 1.4,0.89 2.8,1.79 4.3,2.64 212.5,132.37 394.8,280.61 550.6,434.32 1.2,1.4 2.6,2.74 4,4.04 263.7,261.36 450.5,538.33 577.2,780.34 1,2.05 2,4.09 3.1,5.99 93.6,179.74 154.1,339.84 188.2,459.4 55.4,194 85.4,434.12 100.2,674.1 -0.2,5.08 0.1,10.12 0.9,15.1 8.2,138.76 11.5,277.17 11.7,406.21 v 0" /></g><g
         transform="scale(1.95874)"
         id="g70"><path
           id="path72"
           style="fill:#ffffff;fill-opacity:1;fill-rule:nonzero;stroke:none"
           d="m 12660.5,11232.9 c -74.7,-164.8 -300.1,-559 -779,-657.6 -313.3,-64.5 -500.3,28.7 -617.7,191.8 -113.1,157.3 -156.4,376.8 -187.2,579.2 -30.4,199.6 -50.4,404 -39.8,576.4 7.3,119.3 29.7,224.1 73.5,303.1 -318.4,52.2 -612.9,118.4 -871.1,204.1 -20.8,6.9 -41.3,13.9 -61.6,21 -69.8,2.9 -450.2,13.1 -546.85,-105.4 -41.4,-50.7 -66.42,-103.8 -77.5,-158.1 -9.29,-45.7 -8.88,-93.3 -0.1,-142 l 0.66,-3.5 c 13.63,-72.4 45.59,-147.1 91.44,-221.8 82.6,-134.7 209.16,-267.5 355.65,-387.1 149.6,-121.9 318.5,-229.2 482.4,-310.1 3.6,-1.4 7.2,-3.2 10.7,-5.2 113.6,-55.4 224.5,-98 324.5,-123.8 l 8.8,16.6 c 20.9,39.2 69.6,54 108.8,33.1 39.1,-20.9 53.9,-69.6 33.1,-108.7 l -317.6,-594.6 1035.9,4.3 c 1.5,0.1 3,0.1 4.5,0.1 l 1872.1,7.8 h 0.2 c 1.6,0 3.4,0 5.1,0 l 1675.4,7 h 0.3 c 1.5,0.1 2.9,0.1 4.3,0 l 360,1.6 -261.4,625 c -46.8,-2.1 -74.5,-0.6 -74.8,-0.6 -44.4,2.1 -78.7,39.8 -76.6,84.1 2.1,44.5 39.8,78.7 84.1,76.7 0.4,-0.1 40.7,-2.3 104.9,3 4.9,0.9 9.9,1.4 14.8,1.3 121,11.5 314.8,49.4 491.2,168.8 13.1,8.9 26,18.7 38.6,29.3 125.7,105.9 233.1,294 294.4,478.9 58.3,175.5 75.4,341.2 25,415.7 -1.7,2.5 -3.5,4.8 -5,6.7 -100.2,118.9 -708.5,6.9 -951.9,-43.6 -87.8,-20.1 -178.9,-38.4 -273.1,-54.7 -125.1,-21.9 -255.9,-40.6 -392,-56.1 34.9,-95.1 63.9,-223 85.2,-357.8 33.5,-211.7 48.9,-442.4 38.1,-587.9 -10.8,-147.5 -49.4,-261 -161.7,-337.8 -105.9,-72.4 -276.5,-106.8 -553.2,-99.5 -458.8,12.1 -867.3,408.5 -994.6,544.8 -46,-57.5 -107.3,-94.7 -177.7,-101.2 -74.6,-6.8 -145.6,22.4 -203.1,76.6 l -0.1,0.1" /></g><g
         transform="scale(1.56693)"
         id="g74"><path
           id="path76"
           style="fill:#d4d1ed;fill-opacity:1;fill-rule:nonzero;stroke:none"
           d="m 15780.8,14377.4 c 0.8,-3 1.4,-6 1.6,-9 12.9,-68.8 38,-130.5 71.5,-180.4 1.7,-2.1 3.2,-4.4 4.5,-6.7 7.8,-11 15.9,-21.4 24.4,-31.2 52.6,-60.6 119.1,-95 186.9,-88.8 67.8,6.2 127,52.1 167.8,121.4 40.3,68.3 62.5,158 58.7,255.8 v 1.4 c -0.5,9.3 -1.1,18.7 -1.9,28 -6.6,71.6 -26.1,137.3 -55,192.5 -0.9,1.6 -1.7,3.1 -2.4,4.7 -14.6,27.2 -31.5,51.7 -50.1,73.2 -52.7,60.6 -119.2,94.9 -187.1,88.8 -67.7,-6.2 -126.9,-52.1 -167.7,-121.4 -44.3,-75 -66.7,-176 -56.8,-285.2 1.4,-14.7 3.3,-29 5.6,-43.1 v 0" /></g><g
         transform="scale(1.51347)"
         id="g78"><path
           id="path80"
           style="fill:#d4d1ed;fill-opacity:1;fill-rule:nonzero;stroke:none"
           d="m 15825,14822.1 c -32.6,-6.2 -64.2,15.2 -70.4,47.8 -6.2,32.6 15.2,64.2 47.8,70.4 0.7,0 209.7,42.9 408.5,8.3 -3.8,76.5 5.2,149.7 24.5,215.8 -71.6,174.4 -270.2,386.2 -373.5,489.1 -470.8,36.6 -927.6,83.6 -1353.9,148.8 -63.3,-84.3 -94.3,-218.5 -104.1,-379 -13.1,-212.7 12.2,-469.1 50.5,-720.9 37.8,-248 89.9,-515.6 220.7,-697.4 125.2,-174 329.5,-272.4 678,-200.7 637.7,131.3 896,709.1 946.9,840.3 -31.3,52.1 -55.8,112.1 -71.3,177.5 -183.9,45 -403,0.2 -403.7,0 v 0" /></g><g
         transform="scale(1.76267)"
         id="g82"><path
           id="path84"
           style="fill:#d4d1ed;fill-opacity:1;fill-rule:nonzero;stroke:none"
           d="m 14916.9,12902.4 c 27.3,-8 43,-36.6 35.1,-63.9 -7.9,-27.3 -36.5,-43.1 -63.8,-35.1 -0.5,0.1 -169,50.2 -298.4,1.5 -1.4,-74 -16.6,-143.3 -42.6,-202.9 103.1,-114.6 553.6,-581.6 1052.4,-594.9 284,-7.4 454.4,24.7 554.1,92.9 92.7,63.3 125.1,164.1 134.9,297.5 11.4,155 -5.1,402.1 -41.1,629.7 -24.9,157.4 -58.8,304.3 -98.6,402.4 -374.4,-37.9 -783.3,-55 -1222.5,-51.5 -97.5,-80.5 -288.5,-240.1 -383.7,-330.6 18.3,-41.9 31.9,-88 39.7,-136.8 157.1,44.6 333.9,-8.2 334.5,-8.3 v 0" /></g><g
         transform="scale(2.66166)"
         id="g86"><path
           id="path88"
           style="fill:#ffffff;fill-opacity:1;fill-rule:nonzero;stroke:none"
           d="m 10439.9,12518.3 c -5,4.8 -36.3,35.1 -79.4,86.3 -106.6,-102.2 -214.7,-146.6 -309.7,-151.8 -61.07,-3.3 -116.93,9.8 -164.05,34.5 -48.16,25.2 -86.93,62.5 -112.82,106.9 -38.1,65.3 -48.47,145.7 -20.33,226 37.16,106 108.32,174.2 180.72,217.8 -132.63,16.2 -302.75,26.1 -494.84,23.6 -248.04,-3.2 -531.47,-27.1 -816.64,-84.6 -356.2,-71.7 -602.29,-220.9 -751.18,-339.9 -3.16,-3.2 -6.65,-6 -10.45,-8.5 -112.89,-92 -166.51,-164 -166.85,-164.4 -19.87,-26 -57.03,-31 -83.03,-11.2 -26.03,19.9 -30.99,57 -11.15,83 0.3,0.5 34.11,45.8 103.8,111.5 -159.71,23.9 -491.64,25.7 -924.98,-230.4 -125.08,-73.9 -236.55,-144.3 -341.52,-210.6 -454.26,-286.7 -791.57,-499.6 -1341.6,-468.3 -260.33,14.9 -484.03,97.4 -709.71,180.7 -350.31,129.2 -705.8,260.4 -1199.91,121.4 -89.12,-25.1 -168.37,-59.1 -238.33,-100.3 l -3.02,-1.7 c -217.33,-129.1 -346.08,-330.5 -405.66,-553.4 -60.74,-227.3 -50.04,-476.9 11.81,-696.7 29.22,-103.8 69.82,-200.8 119.63,-285.3 l 1.69,-3 c 168.13,-283.7 478.02,-581.71 942.91,-745.11 364.48,-128.11 824.27,-173.46 1386.02,-64.92 1196.66,231.25 1713.48,820.63 1782.87,905.93 91.86,465.4 274.68,696.9 275.36,697.8 19.98,25.9 57.18,30.7 83.06,10.7 25.85,-20 30.62,-57.2 10.64,-83.1 -0.64,-0.7 -170.46,-215.6 -255.18,-657.3 -0.34,-3 -0.9,-6.1 -1.77,-9.2 -25.13,-133.9 -42.45,-288.3 -44.93,-463.69 -4.85,-344.37 255.89,-565.77 666.31,-712.67 2.18,-0.64 4.28,-1.39 6.31,-2.26 15.86,-5.63 31.94,-11.16 48.24,-16.56 460.51,-152.81 1089.25,-219.64 1746.09,-260.67 663.65,-41.48 1244.29,-21.53 1714.39,60.53 42.6,7.47 84.4,15.44 125.1,23.89 7.6,1.69 25.2,5.6 50.5,10.86 368,81.75 654.6,206.49 843,374.54 211.1,188.15 241,537.43 207.3,873.13 l -1.3,12.5 c -0.3,2 -0.5,4 -0.6,5.9 -36.4,339.2 -136.2,660.7 -181.3,795.9 -10.2,30.9 6.6,64.4 37.6,74.6 31,10.3 64.5,-6.5 74.7,-37.5 45.5,-136.5 145.2,-457.7 184.5,-800.6 194,-173.7 549.7,-473.95 1003,-743.59 464.7,-276.48 1032.1,-521.03 1632,-563.37 340.9,-24.05 610.4,97.49 812,290.49 143,137.06 252.6,310.11 329.5,493.12 77.2,183.65 121.5,377.35 134.1,554.95 17.2,244.5 -25.1,454.5 -124.2,558 -256.4,267.7 -556.2,210.2 -890.3,146.2 -128,-24.6 -260.8,-50 -399.8,-60.2 -245.8,-18 -510.9,50.3 -772.8,170.7 -303.8,139.7 -604,350.1 -864,576.8 -393.7,343.4 -745.3,441.2 -840.1,462.5 -41.6,-32.1 -86.1,-61.6 -132.9,-88.3 -12.1,-30.4 -25.1,-59.9 -38.6,-88.2 -73,-153 -173,-297.3 -285.5,-392.8 -121.7,-103.3 -258.6,-151 -395.6,-98.1 -9.3,3.5 -17.3,6.9 -24,10.1 -223.5,106.7 -198.6,311.4 -165.2,421.4 -301.4,52 -616.8,200.5 -908.6,474.9 l -1.2,1.1 h -0.1" /></g><g
         transform="scale(2.68135)"
         id="g90"><path
           id="path92"
           style="fill:#855050;fill-opacity:1;fill-rule:nonzero;stroke:none"
           d="m 10393.1,14077.8 c 157.9,106.5 345.4,165.4 544.3,181.6 l 9.7,0.7 c 1.2,11.5 1.7,22.7 1.6,33.6 -0.3,85.6 -33.2,162.8 -84.4,222.5 -51.4,60 -121,102.5 -194.7,118.5 -22.1,4.8 -43.9,7.3 -65,7.2 -88.3,-0.4 -169.8,-42.1 -230.4,-104.4 -42.1,-43.2 -73.8,-96 -90.7,-151.7 -16.4,-54.1 -18.7,-110.7 -2.7,-163.3 16.3,-53.4 52.1,-103.8 112.3,-144.7 z m 2014.3,-477.1 c 145.5,-178.7 227.5,-359.2 257.5,-532.2 125.6,11.5 210.6,55.1 262.9,115 38.5,44.2 60,98 67.5,154.5 7.7,58.5 0.6,120.1 -18.3,177.5 -32.5,99.1 -99.2,183.7 -182.7,215.2 -195.9,73.8 -333.7,-63 -386.9,-130 z m -2195.7,-995.1 c -54.8,76.4 -114.5,174.2 -161,287.8 -70.61,-16 -208.16,-64.6 -257.72,-206 -15.89,-45.4 -10.22,-90.5 10.96,-126.8 14.73,-25.2 36.92,-46.5 64.56,-61 28.68,-15 63.55,-22.9 102.52,-20.8 70.78,3.8 154.38,40.8 240.68,126.8 z m 1791.6,-583.8 c -11.2,-4.3 -22.6,-8.6 -34,-12.6 -176.7,-62.8 -376,-89.8 -584.6,-70.8 -24.9,-70.3 -57.1,-223.2 96.4,-296.4 6.4,-3.1 11.7,-5.4 15.6,-6.9 89.5,-34.5 185.3,2 274.3,77.6 88.3,74.9 169,186.8 232.3,309.1 z m -1862.4,964 c 2.2,-4.4 3.9,-9.2 5,-14.1 49.9,-135.2 122.8,-248.6 184.2,-329.1 3.5,-3.6 6.4,-7.4 8.9,-11.5 54.7,-70.4 98.6,-113 105.5,-119.6 l 0.6,-0.6 c 496.4,-466.7 1062.2,-540.8 1485,-390.7 118.4,42 225.5,101.5 316.3,174.8 1.4,1.3 2.8,2.4 4.3,3.5 27.2,22.2 52.9,45.6 77,70.2 104.5,106.4 179,234.1 212.7,374.5 58.6,244.4 -6,530 -249.5,813.7 -1.6,1.6 -3.1,3.3 -4.4,5.1 -59.6,68.9 -129.7,137.6 -211.4,205.6 -96.6,80.6 -203.2,149.6 -315.4,205.7 -241.5,120.7 -509,181.9 -759.5,171.9 h -0.2 c -17.8,-0.7 -35.6,-1.8 -53.3,-3.2 -260.9,-21.3 -498.6,-122.8 -661.4,-318.1 -41.6,-49.8 -78.4,-105.8 -109.6,-168.2 -122.5,-245 -102.4,-478.4 -34.8,-669.9 z M 7216.33,7551.23 c 2.72,0.23 5.52,0.27 8.32,0.04 l 422.99,1.79 198.59,371.79 c -60.75,17.61 -125.72,42.22 -192.17,72.61 -53.9,-65.63 -173.42,-189.94 -311.12,-198.14 -195.64,-11.71 -295.89,171.33 -296.15,171.82 -15.89,28.34 -5.82,64.22 22.52,80.1 28.38,15.89 64.26,5.82 80.15,-22.56 0.19,-0.34 65.38,-119.19 186.58,-111.96 83.28,4.96 163.39,80.82 210.12,134.49 -108.49,58.36 -217.13,129.97 -314.54,209.48 -116.81,95.29 -218.47,202.44 -286.09,312.64 -25.17,41.03 -45.72,82.57 -60.71,124.3 -105.14,-69.36 -317.64,-239.84 -442.06,-547.59 -141.98,-351.24 164.06,-560.73 230.37,-601.08 l 543.2,2.27 z M 8756.3,4592.43 c -62.21,105.76 -107.56,232.94 -143.47,378.5 -48.34,195.76 -79.81,425.68 -113.15,682.12 -58.37,448.62 -29.17,1519.34 -20.74,1786.08 l -795.61,-3.36 h -0.03 -0.15 l -406.96,-1.72 c -9.74,-184.42 -29.73,-815.59 101.33,-1502.22 76.82,-402.64 194.08,-672.84 326.51,-860.62 128.33,-181.92 271.54,-286.53 405.62,-359.81 202.06,-49.98 418.07,-89.06 646.65,-118.97 z m 602.05,-56.8 c 182.85,129.93 299.81,365.22 375.4,617.71 79.67,265.98 113.04,550.76 129.23,755.81 28.42,359.78 -0.71,1295.69 -8.88,1535.72 l -1257.57,-5.3 c -8.21,-257.4 -37.89,-1328.92 19.65,-1771.34 32.82,-252.34 63.78,-478.49 110.84,-669.22 43.15,-174.91 99.73,-319.17 184.05,-425.27 124.27,-13.76 252.04,-25.06 383.06,-34.16 21.55,-1.49 42.96,-2.8 64.22,-3.95 z m 1093.25,105.06 c 199.3,124.07 328.5,317.22 416.5,537.52 91,227.95 138.5,486.4 173.6,729.15 61,422.33 44.8,1309.34 39.3,1542.66 l -1109.38,-4.66 c 8.39,-246.9 37.38,-1183.55 8.8,-1545.42 -16.63,-210.75 -51.13,-504 -133.85,-780.24 -67.35,-224.96 -166.93,-438.77 -315.18,-589.93 348.9,-4.48 654.01,37.3 920.21,110.92 z m -3175.04,254.19 c -706.7,-7.56 -1158.3,-116.05 -1357.23,-256.99 -67.39,-47.74 -101.21,-96.26 -101.48,-142.17 -0.22,-46.43 33.31,-96.78 100.66,-147.65 202.7,-153.02 671.23,-282.39 1407.76,-314.09 684.02,-29.43 1425.11,-34.69 2093.24,-22.19 716.99,13.42 1350.69,47.4 1739.49,93.87 373,44.64 672.3,86.41 881.1,153.54 191.7,61.61 303.9,143.13 323.3,268.26 1.3,8.61 1.8,17.19 1.3,25.73 -2.9,54.12 -47.7,100.4 -121.5,139.11 -86.6,45.39 -209,78.36 -351.4,100.4 -215.9,33.38 -475.5,41.06 -726.7,28.57 -12.7,-7.76 -25.4,-15.48 -38.3,-23.09 -182.9,-107.74 -392.9,-200.31 -633.1,-267.77 -1.6,-0.56 -3.3,-1.05 -5,-1.42 -317,-88.5 -686.36,-133.33 -1115.51,-112 l -1.42,0.08 c -28.27,1.41 -56.72,3.09 -85.51,5.07 -440.45,30.58 -845.47,86 -1208.05,176.1 -3.02,0.49 -6.01,1.23 -8.95,2.24 -293.51,73.51 -559.01,169.92 -792.74,294.4 z m 39.87,111.74 c 1.56,-0.78 3.13,-1.6 4.62,-2.5 139.3,-75.07 290.9,-139.74 453.84,-195.2 -57.1,54.38 -113.26,118.3 -167.08,194.61 -141.08,200.01 -265.46,485.16 -345.87,906.63 -131.69,690.06 -113.71,1325.45 -103.64,1523.41 l -496.95,-2.09 c -2.65,-0.18 -5.3,-0.18 -7.95,-0.04 l -373.5,-1.56 c -103.5,-1045 145.6,-1729.73 662.76,-2169.69 112.11,-95.36 237.01,-179.5 373.77,-253.57 z m 4788.37,852.63 c 114,-14.02 350.5,-8.88 577.5,209.86 145.3,140 228.1,310.74 249.8,458.13 8.2,56.35 7.4,108.75 -2.4,153.8 -9,41.36 -25.6,76 -49.5,100.81 -21.7,22.6 -50.8,37.74 -87,43.07 -213.8,31.44 -429.5,-111.32 -494.7,-159.17 -12,-180.4 -35.3,-360.61 -77.5,-508.03 -22.8,-79.92 -60.4,-182.74 -116.2,-298.47 z m -426.4,-619.72 c 307.1,-99.36 609,-88.09 880.5,-0.27 334.2,108.16 622.7,332.22 818.4,608.99 69.9,98.9 124.8,203.22 164.8,308.5 74.4,196.13 97,395.51 67.8,568.86 -28.3,168.16 -105.8,311.22 -232.4,400.73 -35.2,24.83 -74,45.65 -116.6,61.79 -393.7,149.37 -844.3,-133.58 -951.4,-207.09 -0.3,-54.79 -1.4,-111.59 -3.5,-169.32 113.2,68.4 306.8,158.76 504.2,129.71 63.3,-9.32 115,-36.81 154.8,-78.1 39.6,-41.09 66.2,-95.06 79.8,-157.42 12.8,-58.66 14.1,-125.31 3.8,-195.68 -25.1,-170.44 -119.5,-366.61 -284.8,-525.85 -289.1,-278.52 -599.1,-256.18 -715.5,-234.89 -88,-160.66 -208.8,-338.18 -369.9,-509.96 z m 630.7,1880.88 c 183.3,112.07 606.7,324.35 993.2,177.74 52.4,-19.84 100,-45.31 142.9,-75.59 153.7,-108.72 247.3,-279.04 280.7,-477.6 32.6,-193.37 8,-414.08 -73.8,-629.64 -43.5,-114.65 -103.1,-227.91 -178.6,-334.76 -209.7,-296.61 -519.5,-536.93 -878.7,-653.18 -310.2,-100.36 -657,-108.34 -1008.1,19.39 -72.5,-69.7 -152.2,-137.73 -239.5,-202.51 197,1.83 392.3,-9.21 562.5,-35.54 154.6,-23.9 289.4,-60.71 387.8,-112.37 111.3,-58.33 179.3,-136.35 184.6,-237.19 0.9,-15.85 0,-32.41 -2.7,-49.68 -27.4,-177.03 -167,-286.23 -403.4,-362.17 -219.2,-70.48 -524.3,-113.26 -903.2,-158.57 -390.4,-46.7 -1028.4,-80.86 -1751.43,-94.36 -671.04,-12.57 -1414.69,-7.35 -2100.13,22.15 -762.34,32.82 -1254.41,172.12 -1473.63,337.63 -98.57,74.41 -147.61,157.13 -147.16,242.01 0.48,85.4 50.72,166.63 150.75,237.49 196.76,139.41 608.83,249.5 1234.37,273.97 -77.23,50.53 -150.26,104.87 -218.88,163.24 -556.17,473.12 -820.18,1205.99 -698.3,2323.75 3.28,31.22 30.5,54.12 61.49,52.51 l 253.39,1.05 c -127.18,120.68 -273.56,339.04 -149.63,645.6 151.27,374.25 424.93,565.84 523.91,625.36 -2.98,36.03 -1.15,71.87 6.05,107.26 11.78,57.99 37.85,113.79 80.55,166.15 49.42,60.56 147.95,91.3 244.95,106.62 -318.23,161.75 -510.08,390.96 -505.45,719.83 1.45,105.8 8.32,204.4 18.98,296 -228.87,-217.94 -766.59,-627.66 -1715.92,-811.12 -579.94,-112.07 -1056.93,-64.44 -1436.65,69.04 -490.89,172.52 -819.23,488.74 -998.14,790.38 l -2.14,3.4 c -54.6,92.6 -98.96,198.3 -130.74,311.2 -66.74,237.2 -78.1,507.2 -12.18,753.7 66.47,248.8 211.14,474 456.1,619.8 l 3.45,2.2 c 78.01,46 166.02,83.8 264.66,111.5 527.25,148.4 898.02,11.6 1263.4,-123.2 216.04,-79.7 430.15,-158.8 670.44,-172.4 508.78,-29 830.03,173.8 1262.69,446.8 106.88,67.5 220.33,139.2 341.77,210.9 559.08,330.4 974.84,254.8 1090.64,223.4 161.67,125 417.18,273.9 776.51,346.3 290.82,58.5 579.67,82.9 832.27,86.2 260.84,3.4 484.46,-15.9 633.01,-43.6 -51.33,197 -51.85,427.2 68.9,668.7 35.3,70.6 77.1,134.2 124.3,190.7 31.5,37.9 65.4,72.6 101.4,104.3 -66,53 -107.2,117 -128,185.2 -23.1,75.9 -20.2,156.1 2.7,231.5 22.4,73.7 64,143.2 118.8,199.6 81.2,83.5 192.1,139.3 314.2,139.8 30.9,0.1 61.2,-3.1 90.3,-9.5 98.5,-21.4 191.2,-77.6 259.2,-157.1 68.3,-79.7 112.1,-183.1 112.5,-298.5 0.1,-10 -0.2,-20.1 -0.8,-30.2 249,-2.2 509.7,-67.2 746.9,-185.8 120.1,-60 234.4,-133.9 338,-220.3 66.4,-55.4 125.9,-111.4 178.8,-167.7 78.8,91.8 256,245 506.7,150.6 118,-44.5 210.2,-157.8 253.2,-288.9 24,-73.1 33,-152.5 22.9,-229.1 -10.4,-78.5 -40.8,-153.8 -95.6,-216.6 -70.7,-81 -180.7,-139.7 -338.7,-154.5 3.3,-81.1 -4.8,-159.9 -22.9,-235.6 -38.9,-162 -124,-308.5 -243.1,-429.8 l -4.9,-5 c 159.1,-48.1 469.9,-171.4 805.3,-463.9 250.4,-218.4 538.7,-420.6 829.1,-554.2 242.9,-111.7 486.8,-175.1 710,-158.8 131.2,9.6 259.5,34.2 383.1,57.9 364.7,69.9 691.9,132.6 990.6,-179.2 122,-127.4 175.3,-369.2 155.9,-643.7 -13.2,-187.9 -60.3,-393.18 -142.3,-588.23 -82.2,-195.65 -199.8,-381.08 -353.8,-528.61 -222.6,-213.29 -520.1,-347.59 -895.8,-321.07 -616.9,43.56 -1197.4,293.21 -1671.6,575.34 -394.3,234.58 -715.1,491.47 -921.9,670.47 15.4,-323.37 -38.7,-644.06 -254.1,-836.09 -91.9,-81.9 -204.3,-153.99 -335.8,-216.31 113.9,-2.46 209.7,-21.48 251.2,-70.71 3.9,-4.74 7.6,-9.59 11,-14.55 58.4,-86.26 49.2,-246.48 -3.9,-406.4 -50.9,-153.2 -142.2,-311.07 -251,-402.74 -12.4,-10.48 -25.1,-20.11 -37.8,-28.76 -116.9,-79.17 -242.8,-116.02 -341.1,-133.03 l 196.3,-469.39 703.3,2.95 c 31,0.11 56.6,-23.87 58.8,-54.38 l 0.2,0.04 c 0.1,-1.12 13.6,-168.39 16.7,-397.52 z m -117,-111.1 c 0,1.49 0,2.94 0,4.4 0.3,194.08 -8.3,359.29 -13.5,440.89 l -683.4,-2.87 c -2.7,-0.18 -5.5,-0.18 -8.1,-0.03 l -288.6,-1.2 c 5.6,-239.02 21.6,-1131.15 -40.3,-1559.7 -36.1,-249.57 -85.3,-516.23 -181,-755.89 -57.9,-145 -132.6,-279.67 -231.3,-394.2 115.9,47.18 222.9,100.66 321.5,158.8 16.1,9.44 31.9,19.06 47.5,28.75 1,0.71 2.1,1.38 3.2,2.02 158.9,98.98 295.3,209.86 411.8,324.87 1,1.05 2,2.01 3,2.98 197.3,195.5 337,402.71 431.7,583.74 0.8,1.53 1.5,3.02 2.4,4.48 70,134.44 115.2,254.2 140.7,343.59 41.5,145.12 63.9,324.77 75,504.26 -0.1,3.77 0.1,7.57 0.7,11.3 6.1,103.8 8.6,207.29 8.7,303.81 z m -2943.51,1196.3 c -54.6,-120.39 -219.22,-408.27 -569.12,-480.32 -228.84,-47.1 -365.49,20.96 -451.23,140.15 -82.64,114.87 -114.23,275.2 -136.75,423.11 -22.2,145.75 -36.78,295.11 -29.06,420.98 5.34,87.23 21.67,163.73 53.71,221.46 -232.65,38.11 -447.69,86.48 -636.33,149.1 -15.17,5.04 -30.2,10.15 -45.01,15.37 -50.98,2.12 -328.86,9.55 -399.5,-77.02 -30.25,-37.07 -48.52,-75.85 -56.58,-115.5 -6.82,-33.41 -6.49,-68.17 -0.11,-103.75 l 0.49,-2.54 c 9.96,-52.88 33.34,-107.48 66.79,-162.04 60.38,-98.35 152.8,-195.43 259.83,-282.73 109.24,-89.1 232.65,-167.46 352.36,-226.57 2.65,-1.08 5.26,-2.35 7.8,-3.8 83.02,-40.51 164.06,-71.57 237.08,-90.44 l 6.45,12.15 c 15.26,28.61 50.83,39.43 79.44,24.17 28.61,-15.25 39.42,-50.83 24.17,-79.44 l -231.97,-434.33 756.7,3.17 c 1.08,0.04 2.2,0.04 3.32,0 l 1367.52,5.74 h 0.15 c 1.27,0.04 2.5,0.04 3.73,0 l 1223.93,5.11 0.2,0.04 c 1.1,0 2.1,0.04 3.2,0 l 262.9,1.08 -191,456.56 c -34.1,-1.52 -54.4,-0.41 -54.6,-0.37 -32.4,1.49 -57.4,29.05 -55.9,61.46 1.5,32.45 29,57.47 61.5,55.94 0.2,0 29.6,-1.6 76.6,2.24 3.5,0.67 7.2,0.97 10.8,0.97 88.4,8.43 230,36.07 358.8,123.34 9.6,6.48 19,13.65 28.2,21.4 91.8,77.31 170.2,214.74 215.1,349.75 42.6,128.3 55,249.32 18.2,303.73 -1.3,1.83 -2.5,3.47 -3.7,4.88 -73.2,86.86 -517.5,5.08 -695.3,-31.84 -64.2,-14.66 -130.7,-28.01 -199.5,-40.02 -91.4,-15.96 -186.9,-29.58 -286.3,-40.91 25.4,-69.48 46.6,-162.94 62.2,-261.4 24.5,-154.63 35.6,-323.16 27.8,-429.41 -7.9,-107.82 -36.1,-190.73 -118.1,-246.82 -77.4,-52.88 -202,-78.06 -404.2,-72.69 -335.05,8.84 -633.52,298.4 -726.53,398.01 -33.57,-42.03 -78.36,-69.25 -129.79,-73.95 -54.52,-4.96 -106.32,16.37 -148.39,55.98 z m -194.19,622.33 c 48.74,-52.88 106.47,-121.91 145.52,-189.3 34.65,53.06 84.92,88.08 143.92,93.49 62.69,5.71 121.8,-23.38 166.67,-75 5.26,-6.08 10.37,-12.53 15.22,-19.2 48.85,45.38 122.32,107.96 182.14,158.09 -150,2.91 -305.07,9.32 -464.91,19.32 -63.14,3.95 -126.02,8.13 -188.56,12.6 z m 167.63,-426.09 c 0.45,-1.71 0.75,-3.47 0.94,-5.26 7.49,-40.16 22.15,-76.23 41.73,-105.47 0.97,-1.23 1.86,-2.5 2.69,-3.84 4.47,-6.45 9.24,-12.57 14.2,-18.27 30.74,-35.4 69.6,-55.5 109.28,-51.88 39.6,3.62 74.18,30.47 98.05,70.9 23.53,39.9 36.47,92.38 34.27,149.51 l -0.04,0.86 c -0.22,5.41 -0.59,10.85 -1.08,16.37 -3.84,41.81 -15.29,80.18 -32.11,112.48 -0.52,0.86 -1.01,1.79 -1.46,2.73 -8.54,15.85 -18.38,30.24 -29.27,42.77 -30.73,35.4 -69.63,55.5 -109.27,51.92 -39.61,-3.62 -74.18,-30.47 -98.05,-70.94 -25.88,-43.86 -38.97,-102.93 -33.16,-166.71 0.79,-8.54 1.87,-16.93 3.28,-25.17 z m -289.74,-35.65 c -18.38,-3.51 -36.17,8.58 -39.72,26.96 -3.5,18.42 8.58,36.21 27,39.76 0.38,0.03 118.34,24.24 230.52,4.7 -2.12,43.15 2.99,84.47 13.88,121.76 -40.43,98.46 -152.5,218.03 -210.83,276.13 -265.76,20.63 -523.62,47.18 -764.24,83.95 -35.69,-47.58 -53.18,-123.29 -58.74,-213.92 -7.35,-120.05 6.94,-264.79 28.53,-406.92 21.33,-139.97 50.72,-291.01 124.56,-393.61 70.68,-98.27 185.99,-153.8 382.68,-113.3 360.01,74.1 505.72,400.28 534.51,474.31 -17.68,29.39 -31.51,63.29 -40.24,100.18 -103.83,25.36 -227.53,0.07 -227.91,0 z m 873.82,115.61 c 17.97,-5.22 28.3,-24.02 23.12,-41.99 -5.22,-17.98 -24.02,-28.31 -42,-23.13 -0.33,0.12 -111.06,33.08 -196.13,1.01 -0.89,-48.59 -10.92,-94.17 -28.04,-133.33 67.87,-75.37 363.96,-382.42 691.84,-391.07 186.7,-4.92 298.7,16.19 364.3,61.02 61,41.65 82.2,107.93 88.7,195.53 7.5,101.89 -3.4,264.42 -27,414.01 -16.4,103.49 -38.7,200.05 -64.9,264.57 -246.1,-24.95 -514.9,-36.22 -803.63,-33.87 -64.03,-52.92 -189.68,-157.83 -252.19,-217.35 11.98,-27.56 20.93,-57.84 26.07,-89.99 103.24,29.35 219.48,-5.33 219.86,-5.45 z m 557.19,3944.59 c -4.9,4.8 -36.1,34.9 -78.9,85.7 -105.8,-101.5 -213.1,-145.6 -307.37,-150.7 -60.64,-3.3 -116.1,9.6 -162.87,34.2 -47.77,25 -86.26,62 -111.99,106.1 -37.78,64.8 -48.11,144.7 -20.14,224.4 36.84,105.2 107.52,172.9 179.35,216.2 -131.65,16.1 -300.49,25.9 -491.17,23.4 -246.22,-3.2 -527.57,-26.9 -810.64,-83.9 -353.63,-71.3 -597.87,-219.3 -745.67,-337.5 -3.13,-3.2 -6.64,-6 -10.37,-8.4 -112.1,-91.3 -165.29,-162.8 -165.66,-163.3 -19.69,-25.8 -56.61,-30.7 -82.42,-11 -25.81,19.7 -30.73,56.6 -11.04,82.4 0.3,0.4 33.83,45.5 103.01,110.6 -158.54,23.8 -488,25.5 -918.16,-228.7 -124.15,-73.3 -234.84,-143.2 -339.05,-209 -450.92,-284.6 -785.72,-495.9 -1331.71,-464.9 -258.45,14.8 -480.47,96.7 -704.5,179.4 -347.73,128.3 -700.64,258.5 -1191.12,120.5 -88.46,-24.9 -167.13,-58.6 -236.58,-99.6 l -2.99,-1.6 c -215.73,-128.2 -343.55,-328.1 -402.69,-549.4 -60.29,-225.6 -49.67,-473.4 11.73,-691.6 29,-103.1 69.31,-199.3 118.75,-283.1 l 1.68,-3.1 c 166.89,-281.6 474.51,-577.4 935.98,-739.6 361.79,-127.17 818.24,-172.18 1375.87,-64.44 1187.87,229.55 1700.86,814.64 1769.78,899.24 91.15,462.1 272.62,691.9 273.33,692.7 19.8,25.7 56.72,30.5 82.42,10.6 25.66,-19.8 30.43,-56.7 10.59,-82.4 -0.63,-0.8 -169.2,-214.1 -253.34,-652.5 -0.34,-3 -0.89,-6.1 -1.72,-9.2 -24.98,-132.9 -42.14,-286.2 -44.6,-460.25 -4.81,-341.84 253.98,-561.62 661.42,-707.44 2.13,-0.63 4.22,-1.38 6.27,-2.24 15.73,-5.59 31.7,-11.07 47.88,-16.44 457.09,-151.68 1081.21,-218.03 1733.23,-258.75 658.78,-41.18 1235.21,-21.37 1701.71,60.08 42.4,7.42 83.9,15.33 124.4,23.72 7.5,1.68 24.9,5.56 50.1,10.78 365.2,81.15 649.7,204.97 836.8,371.79 209.4,186.77 239.2,533.46 205.7,866.75 l -1.3,12.4 c -0.3,1.9 -0.5,3.9 -0.6,5.8 -36.2,336.7 -135.2,655.9 -179.9,790.1 -10.2,30.7 6.5,63.9 37.3,74.1 30.8,10.1 64,-6.6 74.1,-37.3 45.2,-135.5 144.1,-454.3 183.2,-794.7 192.5,-172.4 545.7,-470.47 995.6,-738.14 461.3,-274.45 1024.5,-517.2 1620,-559.23 338.4,-23.87 606,96.78 806.1,288.36 142,136.05 250.7,307.83 327,489.49 76.7,182.3 120.7,374.52 133.1,550.92 17.2,242.7 -24.8,451.2 -123.2,553.9 -254.6,265.7 -552.2,208.7 -883.8,145.1 -127.1,-24.4 -258.9,-49.6 -396.9,-59.7 -244,-17.9 -507.1,49.8 -767.1,169.4 -301.5,138.7 -599.5,347.5 -857.6,572.6 -390.8,340.8 -739.9,437.9 -834,459.1 -41.3,-31.9 -85.4,-61.2 -131.9,-87.7 -12.1,-30.2 -24.9,-59.4 -38.2,-87.5 -72.5,-151.9 -171.8,-295.2 -283.5,-390 -120.8,-102.5 -256.7,-149.8 -392.7,-97.4 -9.2,3.5 -17.1,6.9 -23.8,10.1 -221.9,105.9 -197.2,309.1 -164,418.3 -299.2,51.6 -612.3,199 -902,471.4 l -1.2,1.1 v 0" /></g><g
         transform="scale(2.17411)"
         id="g94"><path
           id="path96"
           style="fill:#855050;fill-opacity:1;fill-rule:evenodd;stroke:none"
           d="m 14324.2,15663 c 73.6,0 133.2,-59.6 133.2,-133.2 0,-73.5 -59.6,-133.1 -133.2,-133.1 -73.5,0 -133.2,59.6 -133.2,133.1 0,73.6 59.7,133.2 133.2,133.2 z m -1159.8,2.1 c 0.5,15.3 13.4,27.4 28.8,27 15.3,-0.5 27.4,-13.4 26.9,-28.8 0,-0.3 -3,-94.2 59,-110.5 59,-15.5 118.7,27.4 134.8,40.2 l 50.8,99.8 c -30.7,25.2 -52.2,54.9 -47.4,80.6 11.3,61.8 142.5,99.7 194.3,73.2 51.7,-26.5 35.4,-185.6 -1.3,-205.8 -19.5,-10.8 -59.9,-0.1 -98.7,20.8 l -47.7,-93.7 c -0.6,-24.7 1.1,-119.6 57.8,-133.8 69.7,-17.4 99.6,24.1 99.7,24.2 9.6,12.1 27.1,14.2 39.2,4.7 12.2,-9.5 14.2,-27.1 4.7,-39.2 -0.1,-0.2 -51.2,-70.3 -157.1,-43.9 -70.2,17.6 -91.5,92.1 -97.7,144.2 -35.9,-19.9 -89.7,-40 -145.6,-25.3 -104.9,27.6 -100.5,165.9 -100.5,166.3 z m -210.6,634.9 c 73.5,0 133.1,-59.6 133.1,-133.2 0,-73.5 -59.6,-133.1 -133.1,-133.1 -73.6,0 -133.2,59.6 -133.2,133.1 0,73.6 59.6,133.2 133.2,133.2" /></g><g
         transform="scale(1.86285)"
         id="g98"><path
           id="path100"
           style="fill:#86d8f7;fill-opacity:1;fill-rule:evenodd;stroke:none"
           d="m 15929.8,15549.5 c 204.5,0 370.2,-253.2 370.2,-565.6 0,-312.3 -165.7,-565.6 -370.2,-565.6 -204.5,0 -370.2,253.3 -370.2,565.6 0,312.4 165.7,565.6 370.2,565.6" /></g><g
         transform="scale(1.79481)"
         id="g102"><path
           id="path104"
           style="fill:#86d8f7;fill-opacity:1;fill-rule:evenodd;stroke:none"
           d="m 11839.6,16266.6 c 209.6,-33.5 338,-320.1 287,-640.3 -51.1,-320.1 -262.4,-552.6 -472,-519.1 -209.5,33.5 -338,320.1 -286.9,640.2 51.1,320.2 262.3,552.6 471.9,519.2" /></g><g
         transform="scale(1.9639)"
         id="g106"><path
           id="path108"
           style="fill:#fabad8;fill-opacity:1;fill-rule:evenodd;stroke:none"
           d="m 15694.6,13485.1 c 334.4,0 605.4,-169.8 605.4,-379.3 0,-209.4 -271,-379.3 -605.4,-379.3 -334.4,0 -605.4,169.9 -605.4,379.3 0,209.5 271,379.3 605.4,379.3" /></g><g
         transform="scale(1.65584)"
         id="g110"><path
           id="path112"
           style="fill:#fabad8;fill-opacity:1;fill-rule:evenodd;stroke:none"
           d="m 12035.1,16300 c 396.5,0 718,-201.5 718,-449.9 0,-248.5 -321.5,-449.9 -718,-449.9 -396.5,0 -718,201.4 -718,449.9 0,248.4 321.5,449.9 718,449.9" /></g><g
         transform="scale(1.64595)"
         id="g114"><path
           id="path116"
           style="fill:#855050;fill-opacity:1;fill-rule:nonzero;stroke:none"
           d="m 14586.6,16121.9 c 7.4,29.6 37.5,47.6 67.1,40.2 29.6,-7.4 47.6,-37.4 40.2,-67 -0.3,-1.2 -107.4,-409.2 213.8,-425.1 348.8,-17.3 446.9,260.6 447.2,261.4 10.7,28.6 42.6,43 71.2,32.3 10.6,-4 19.1,-10.9 25.3,-19.4 0.6,-0.8 219.8,-306.8 513,-211.3 40.1,13.1 73.5,28.8 100.9,46.3 65,41.6 97,94.3 109.2,146.9 12.6,54.3 5.1,109.6 -9.2,153.6 -7.6,23.7 -16.9,43.2 -25.8,57.1 -16.4,25.7 -8.9,59.8 16.8,76.2 25.7,16.3 59.9,8.8 76.2,-16.9 13.7,-21.5 27.5,-49.9 38,-82.2 19.5,-59.9 29.5,-136.1 11.8,-212.5 -18.1,-78.2 -64.4,-155.8 -157.3,-215.2 -35.2,-22.5 -77,-42.4 -126.4,-58.5 -269.6,-87.8 -483.7,85.1 -580.5,186 -64.8,-103 -216.4,-268.9 -515.6,-254.2 -458.1,22.7 -316.3,560.7 -315.9,562.3 v 0" /></g></g></g></svg>